# Blender 4.5.3 LTS
# www.blender.org
o Torus
v 1.250000 0.000000 0.000000
v 1.216506 0.125000 0.000000
v 1.125000 0.216506 0.000000
v 1.000000 0.250000 0.000000
v 0.875000 0.216506 0.000000
v 0.783494 0.125000 0.000000
v 0.750000 0.000000 0.000000
v 0.783494 -0.125000 0.000000
v 0.875000 -0.216506 0.000000
v 1.000000 -0.250000 0.000000
v 1.125000 -0.216506 0.000000
v 1.216506 -0.125000 0.000000
v 1.239306 0.000000 -0.163158
v 1.206099 0.125000 -0.158786
v 1.115376 0.216506 -0.146842
v 0.991445 0.250000 -0.130526
v 0.867514 0.216506 -0.114210
v 0.776791 0.125000 -0.102266
v 0.743584 0.000000 -0.097895
v 0.776791 -0.125000 -0.102266
v 0.867514 -0.216506 -0.114210
v 0.991445 -0.250000 -0.130526
v 1.115376 -0.216506 -0.146842
v 1.206099 -0.125000 -0.158786
v 1.207407 0.000000 -0.323524
v 1.175055 0.125000 -0.314855
v 1.086667 0.216506 -0.291171
v 0.965926 0.250000 -0.258819
v 0.845185 0.216506 -0.226467
v 0.756797 0.125000 -0.202783
v 0.724444 0.000000 -0.194114
v 0.756797 -0.125000 -0.202783
v 0.845185 -0.216506 -0.226467
v 0.965926 -0.250000 -0.258819
v 1.086667 -0.216506 -0.291171
v 1.175055 -0.125000 -0.314855
v 1.154849 0.000000 -0.478354
v 1.123905 0.125000 -0.465537
v 1.039364 0.216506 -0.430519
v 0.923880 0.250000 -0.382683
v 0.808395 0.216506 -0.334848
v 0.723854 0.125000 -0.299830
v 0.692910 0.000000 -0.287013
v 0.723854 -0.125000 -0.299830
v 0.808395 -0.216506 -0.334848
v 0.923880 -0.250000 -0.382683
v 1.039364 -0.216506 -0.430519
v 1.123905 -0.125000 -0.465537
v 1.082532 0.000000 -0.625000
v 1.053525 0.125000 -0.608253
v 0.974279 0.216506 -0.562500
v 0.866025 0.250000 -0.500000
v 0.757772 0.216506 -0.437500
v 0.678525 0.125000 -0.391747
v 0.649519 0.000000 -0.375000
v 0.678525 -0.125000 -0.391747
v 0.757772 -0.216506 -0.437500
v 0.866025 -0.250000 -0.500000
v 0.974279 -0.216506 -0.562500
v 1.053525 -0.125000 -0.608253
v 0.991692 0.000000 -0.760952
v 0.965119 0.125000 -0.740562
v 0.892523 0.216506 -0.684856
v 0.793353 0.250000 -0.608761
v 0.694184 0.216506 -0.532666
v 0.621587 0.125000 -0.476961
v 0.595015 0.000000 -0.456571
v 0.621587 -0.125000 -0.476961
v 0.694184 -0.216506 -0.532666
v 0.793353 -0.250000 -0.608761
v 0.892523 -0.216506 -0.684856
v 0.965119 -0.125000 -0.740562
v 0.883883 0.000000 -0.883884
v 0.860200 0.125000 -0.860200
v 0.795495 0.216506 -0.795495
v 0.707107 0.250000 -0.707107
v 0.618718 0.216506 -0.618719
v 0.554014 0.125000 -0.554014
v 0.530330 0.000000 -0.530330
v 0.554014 -0.125000 -0.554014
v 0.618718 -0.216506 -0.618719
v 0.707107 -0.250000 -0.707107
v 0.795495 -0.216506 -0.795495
v 0.860200 -0.125000 -0.860200
v 0.760952 0.000000 -0.991691
v 0.740562 0.125000 -0.965119
v 0.684857 0.216506 -0.892522
v 0.608762 0.250000 -0.793353
v 0.532666 0.216506 -0.694184
v 0.476961 0.125000 -0.621587
v 0.456571 0.000000 -0.595015
v 0.476961 -0.125000 -0.621587
v 0.532666 -0.216506 -0.694184
v 0.608762 -0.250000 -0.793353
v 0.684857 -0.216506 -0.892522
v 0.740562 -0.125000 -0.965119
v 0.625000 0.000000 -1.082532
v 0.608253 0.125000 -1.053525
v 0.562500 0.216506 -0.974279
v 0.500000 0.250000 -0.866025
v 0.437500 0.216506 -0.757772
v 0.391747 0.125000 -0.678525
v 0.375000 0.000000 -0.649519
v 0.391747 -0.125000 -0.678525
v 0.437500 -0.216506 -0.757772
v 0.500000 -0.250000 -0.866025
v 0.562500 -0.216506 -0.974279
v 0.608253 -0.125000 -1.053525
v 0.478355 0.000000 -1.154849
v 0.465537 0.125000 -1.123905
v 0.430519 0.216506 -1.039364
v 0.382684 0.250000 -0.923879
v 0.334848 0.216506 -0.808394
v 0.299830 0.125000 -0.723854
v 0.287013 0.000000 -0.692910
v 0.299830 -0.125000 -0.723854
v 0.334848 -0.216506 -0.808394
v 0.382684 -0.250000 -0.923879
v 0.430519 -0.216506 -1.039364
v 0.465537 -0.125000 -1.123905
v 0.323524 0.000000 -1.207407
v 0.314855 0.125000 -1.175055
v 0.291171 0.216506 -1.086667
v 0.258819 0.250000 -0.965926
v 0.226467 0.216506 -0.845185
v 0.202783 0.125000 -0.756797
v 0.194114 0.000000 -0.724444
v 0.202783 -0.125000 -0.756797
v 0.226467 -0.216506 -0.845185
v 0.258819 -0.250000 -0.965926
v 0.291171 -0.216506 -1.086667
v 0.314855 -0.125000 -1.175055
v 0.163158 0.000000 -1.239306
v 0.158786 0.125000 -1.206099
v 0.146842 0.216506 -1.115376
v 0.130526 0.250000 -0.991445
v 0.114210 0.216506 -0.867514
v 0.102266 0.125000 -0.776791
v 0.097895 0.000000 -0.743584
v 0.102266 -0.125000 -0.776791
v 0.114210 -0.216506 -0.867514
v 0.130526 -0.250000 -0.991445
v 0.146842 -0.216506 -1.115376
v 0.158786 -0.125000 -1.206099
v 0.000000 0.000000 -1.250000
v 0.000000 0.125000 -1.216506
v 0.000000 0.216506 -1.125000
v 0.000000 0.250000 -1.000000
v 0.000000 0.216506 -0.875000
v 0.000000 0.125000 -0.783494
v 0.000000 0.000000 -0.750000
v 0.000000 -0.125000 -0.783494
v 0.000000 -0.216506 -0.875000
v 0.000000 -0.250000 -1.000000
v 0.000000 -0.216506 -1.125000
v 0.000000 -0.125000 -1.216506
v -0.163158 0.000000 -1.239306
v -0.158786 0.125000 -1.206099
v -0.146842 0.216506 -1.115375
v -0.130526 0.250000 -0.991445
v -0.114211 0.216506 -0.867514
v -0.102267 0.125000 -0.776791
v -0.097895 0.000000 -0.743584
v -0.102267 -0.125000 -0.776791
v -0.114211 -0.216506 -0.867514
v -0.130526 -0.250000 -0.991445
v -0.146842 -0.216506 -1.115375
v -0.158786 -0.125000 -1.206099
v -0.323524 0.000000 -1.207407
v -0.314855 0.125000 -1.175055
v -0.291171 0.216506 -1.086667
v -0.258819 0.250000 -0.965926
v -0.226467 0.216506 -0.845185
v -0.202783 0.125000 -0.756797
v -0.194114 0.000000 -0.724444
v -0.202783 -0.125000 -0.756797
v -0.226467 -0.216506 -0.845185
v -0.258819 -0.250000 -0.965926
v -0.291171 -0.216506 -1.086667
v -0.314855 -0.125000 -1.175055
v -0.478354 0.000000 -1.154849
v -0.465537 0.125000 -1.123905
v -0.430519 0.216506 -1.039364
v -0.382684 0.250000 -0.923880
v -0.334848 0.216506 -0.808395
v -0.299830 0.125000 -0.723854
v -0.287013 0.000000 -0.692910
v -0.299830 -0.125000 -0.723854
v -0.334848 -0.216506 -0.808395
v -0.382684 -0.250000 -0.923880
v -0.430519 -0.216506 -1.039364
v -0.465537 -0.125000 -1.123905
v -0.625000 0.000000 -1.082532
v -0.608253 0.125000 -1.053526
v -0.562500 0.216506 -0.974279
v -0.500000 0.250000 -0.866026
v -0.437500 0.216506 -0.757772
v -0.391747 0.125000 -0.678525
v -0.375000 0.000000 -0.649519
v -0.391747 -0.125000 -0.678525
v -0.437500 -0.216506 -0.757772
v -0.500000 -0.250000 -0.866026
v -0.562500 -0.216506 -0.974279
v -0.608253 -0.125000 -1.053526
v -0.760952 0.000000 -0.991692
v -0.740562 0.125000 -0.965119
v -0.684857 0.216506 -0.892522
v -0.608761 0.250000 -0.793353
v -0.532666 0.216506 -0.694184
v -0.476961 0.125000 -0.621587
v -0.456571 0.000000 -0.595015
v -0.476961 -0.125000 -0.621587
v -0.532666 -0.216506 -0.694184
v -0.608761 -0.250000 -0.793353
v -0.684857 -0.216506 -0.892522
v -0.740562 -0.125000 -0.965119
v -0.883884 0.000000 -0.883883
v -0.860200 0.125000 -0.860200
v -0.795495 0.216506 -0.795495
v -0.707107 0.250000 -0.707107
v -0.618719 0.216506 -0.618718
v -0.554014 0.125000 -0.554013
v -0.530330 0.000000 -0.530330
v -0.554014 -0.125000 -0.554013
v -0.618719 -0.216506 -0.618718
v -0.707107 -0.250000 -0.707107
v -0.795495 -0.216506 -0.795495
v -0.860200 -0.125000 -0.860200
v -0.991692 0.000000 -0.760952
v -0.965119 0.125000 -0.740562
v -0.892522 0.216506 -0.684857
v -0.793353 0.250000 -0.608761
v -0.694184 0.216506 -0.532666
v -0.621587 0.125000 -0.476961
v -0.595015 0.000000 -0.456571
v -0.621587 -0.125000 -0.476961
v -0.694184 -0.216506 -0.532666
v -0.793353 -0.250000 -0.608761
v -0.892522 -0.216506 -0.684857
v -0.965119 -0.125000 -0.740562
v -1.082532 0.000000 -0.625000
v -1.053525 0.125000 -0.608253
v -0.974278 0.216506 -0.562500
v -0.866025 0.250000 -0.500000
v -0.757772 0.216506 -0.437500
v -0.678525 0.125000 -0.391747
v -0.649519 0.000000 -0.375000
v -0.678525 -0.125000 -0.391747
v -0.757772 -0.216506 -0.437500
v -0.866025 -0.250000 -0.500000
v -0.974278 -0.216506 -0.562500
v -1.053525 -0.125000 -0.608253
v -1.154849 0.000000 -0.478354
v -1.123905 0.125000 -0.465537
v -1.039364 0.216506 -0.430519
v -0.923880 0.250000 -0.382683
v -0.808395 0.216506 -0.334848
v -0.723854 0.125000 -0.299830
v -0.692910 0.000000 -0.287013
v -0.723854 -0.125000 -0.299830
v -0.808395 -0.216506 -0.334848
v -0.923880 -0.250000 -0.382683
v -1.039364 -0.216506 -0.430519
v -1.123905 -0.125000 -0.465537
v -1.207407 0.000000 -0.323524
v -1.175055 0.125000 -0.314855
v -1.086667 0.216506 -0.291171
v -0.965926 0.250000 -0.258819
v -0.845185 0.216506 -0.226467
v -0.756797 0.125000 -0.202783
v -0.724444 0.000000 -0.194114
v -0.756797 -0.125000 -0.202783
v -0.845185 -0.216506 -0.226467
v -0.965926 -0.250000 -0.258819
v -1.086667 -0.216506 -0.291171
v -1.175055 -0.125000 -0.314855
v -1.239306 0.000000 -0.163158
v -1.206099 0.125000 -0.158786
v -1.115375 0.216506 -0.146842
v -0.991445 0.250000 -0.130526
v -0.867514 0.216506 -0.114211
v -0.776791 0.125000 -0.102267
v -0.743584 0.000000 -0.097895
v -0.776791 -0.125000 -0.102267
v -0.867514 -0.216506 -0.114211
v -0.991445 -0.250000 -0.130526
v -1.115375 -0.216506 -0.146842
v -1.206099 -0.125000 -0.158786
v -1.250000 0.000000 -0.000000
v -1.216506 0.125000 -0.000000
v -1.125000 0.216506 -0.000000
v -1.000000 0.250000 -0.000000
v -0.875000 0.216506 -0.000000
v -0.783494 0.125000 -0.000000
v -0.750000 0.000000 -0.000000
v -0.783494 -0.125000 -0.000000
v -0.875000 -0.216506 -0.000000
v -1.000000 -0.250000 -0.000000
v -1.125000 -0.216506 -0.000000
v -1.216506 -0.125000 -0.000000
v -1.239306 0.000000 0.163158
v -1.206099 0.125000 0.158786
v -1.115375 0.216506 0.146842
v -0.991445 0.250000 0.130526
v -0.867514 0.216506 0.114211
v -0.776791 0.125000 0.102267
v -0.743584 0.000000 0.097895
v -0.776791 -0.125000 0.102267
v -0.867514 -0.216506 0.114211
v -0.991445 -0.250000 0.130526
v -1.115375 -0.216506 0.146842
v -1.206099 -0.125000 0.158786
v -1.207407 0.000000 0.323524
v -1.175055 0.125000 0.314855
v -1.086667 0.216506 0.291171
v -0.965926 0.250000 0.258819
v -0.845185 0.216506 0.226467
v -0.756797 0.125000 0.202783
v -0.724444 0.000000 0.194114
v -0.756797 -0.125000 0.202783
v -0.845185 -0.216506 0.226467
v -0.965926 -0.250000 0.258819
v -1.086667 -0.216506 0.291171
v -1.175055 -0.125000 0.314855
v -1.154850 0.000000 0.478354
v -1.123906 0.125000 0.465536
v -1.039365 0.216506 0.430518
v -0.923880 0.250000 0.382683
v -0.808395 0.216506 0.334848
v -0.723854 0.125000 0.299830
v -0.692910 0.000000 0.287012
v -0.723854 -0.125000 0.299830
v -0.808395 -0.216506 0.334848
v -0.923880 -0.250000 0.382683
v -1.039365 -0.216506 0.430518
v -1.123906 -0.125000 0.465536
v -1.082532 0.000000 0.625000
v -1.053526 0.125000 0.608253
v -0.974279 0.216506 0.562500
v -0.866026 0.250000 0.500000
v -0.757772 0.216506 0.437500
v -0.678525 0.125000 0.391747
v -0.649519 0.000000 0.375000
v -0.678525 -0.125000 0.391747
v -0.757772 -0.216506 0.437500
v -0.866026 -0.250000 0.500000
v -0.974279 -0.216506 0.562500
v -1.053526 -0.125000 0.608253
v -0.991692 0.000000 0.760952
v -0.965119 0.125000 0.740562
v -0.892522 0.216506 0.684857
v -0.793353 0.250000 0.608761
v -0.694184 0.216506 0.532666
v -0.621587 0.125000 0.476961
v -0.595015 0.000000 0.456571
v -0.621587 -0.125000 0.476961
v -0.694184 -0.216506 0.532666
v -0.793353 -0.250000 0.608761
v -0.892522 -0.216506 0.684857
v -0.965119 -0.125000 0.740562
v -0.883884 0.000000 0.883883
v -0.860200 0.125000 0.860200
v -0.795495 0.216506 0.795495
v -0.707107 0.250000 0.707107
v -0.618719 0.216506 0.618718
v -0.554014 0.125000 0.554013
v -0.530330 0.000000 0.530330
v -0.554014 -0.125000 0.554013
v -0.618719 -0.216506 0.618718
v -0.707107 -0.250000 0.707107
v -0.795495 -0.216506 0.795495
v -0.860200 -0.125000 0.860200
v -0.760952 0.000000 0.991691
v -0.740563 0.125000 0.965119
v -0.684857 0.216506 0.892522
v -0.608762 0.250000 0.793353
v -0.532667 0.216506 0.694184
v -0.476961 0.125000 0.621587
v -0.456571 0.000000 0.595015
v -0.476961 -0.125000 0.621587
v -0.532667 -0.216506 0.694184
v -0.608762 -0.250000 0.793353
v -0.684857 -0.216506 0.892522
v -0.740563 -0.125000 0.965119
v -0.625000 0.000000 1.082532
v -0.608253 0.125000 1.053526
v -0.562500 0.216506 0.974279
v -0.500000 0.250000 0.866026
v -0.437500 0.216506 0.757772
v -0.391747 0.125000 0.678525
v -0.375000 0.000000 0.649519
v -0.391747 -0.125000 0.678525
v -0.437500 -0.216506 0.757772
v -0.500000 -0.250000 0.866026
v -0.562500 -0.216506 0.974279
v -0.608253 -0.125000 1.053526
v -0.478354 0.000000 1.154849
v -0.465537 0.125000 1.123905
v -0.430519 0.216506 1.039364
v -0.382684 0.250000 0.923880
v -0.334848 0.216506 0.808395
v -0.299830 0.125000 0.723854
v -0.287013 0.000000 0.692910
v -0.299830 -0.125000 0.723854
v -0.334848 -0.216506 0.808395
v -0.382684 -0.250000 0.923880
v -0.430519 -0.216506 1.039364
v -0.465537 -0.125000 1.123905
v -0.323524 0.000000 1.207407
v -0.314855 0.125000 1.175055
v -0.291172 0.216506 1.086666
v -0.258819 0.250000 0.965926
v -0.226467 0.216506 0.845185
v -0.202783 0.125000 0.756797
v -0.194115 0.000000 0.724444
v -0.202783 -0.125000 0.756797
v -0.226467 -0.216506 0.845185
v -0.258819 -0.250000 0.965926
v -0.291172 -0.216506 1.086666
v -0.314855 -0.125000 1.175055
v -0.163158 0.000000 1.239306
v -0.158787 0.125000 1.206099
v -0.146843 0.216506 1.115375
v -0.130527 0.250000 0.991445
v -0.114211 0.216506 0.867514
v -0.102267 0.125000 0.776791
v -0.097895 0.000000 0.743584
v -0.102267 -0.125000 0.776791
v -0.114211 -0.216506 0.867514
v -0.130527 -0.250000 0.991445
v -0.146843 -0.216506 1.115375
v -0.158787 -0.125000 1.206099
v 0.000000 0.000000 1.250000
v 0.000000 0.125000 1.216506
v 0.000000 0.216506 1.125000
v 0.000000 0.250000 1.000000
v 0.000000 0.216506 0.875000
v 0.000000 0.125000 0.783494
v 0.000000 0.000000 0.750000
v 0.000000 -0.125000 0.783494
v 0.000000 -0.216506 0.875000
v 0.000000 -0.250000 1.000000
v 0.000000 -0.216506 1.125000
v 0.000000 -0.125000 1.216506
v 0.163158 0.000000 1.239306
v 0.158786 0.125000 1.206099
v 0.146842 0.216506 1.115376
v 0.130526 0.250000 0.991445
v 0.114210 0.216506 0.867514
v 0.102266 0.125000 0.776791
v 0.097895 0.000000 0.743584
v 0.102266 -0.125000 0.776791
v 0.114210 -0.216506 0.867514
v 0.130526 -0.250000 0.991445
v 0.146842 -0.216506 1.115376
v 0.158786 -0.125000 1.206099
v 0.323523 0.000000 1.207407
v 0.314854 0.125000 1.175055
v 0.291171 0.216506 1.086667
v 0.258819 0.250000 0.965926
v 0.226466 0.216506 0.845185
v 0.202783 0.125000 0.756797
v 0.194114 0.000000 0.724444
v 0.202783 -0.125000 0.756797
v 0.226466 -0.216506 0.845185
v 0.258819 -0.250000 0.965926
v 0.291171 -0.216506 1.086667
v 0.314854 -0.125000 1.175055
v 0.478355 0.000000 1.154849
v 0.465537 0.125000 1.123905
v 0.430519 0.216506 1.039364
v 0.382684 0.250000 0.923879
v 0.334848 0.216506 0.808394
v 0.299830 0.125000 0.723854
v 0.287013 0.000000 0.692910
v 0.299830 -0.125000 0.723854
v 0.334848 -0.216506 0.808394
v 0.382684 -0.250000 0.923879
v 0.430519 -0.216506 1.039364
v 0.465537 -0.125000 1.123905
v 0.625000 0.000000 1.082532
v 0.608253 0.125000 1.053525
v 0.562500 0.216506 0.974279
v 0.500000 0.250000 0.866025
v 0.437500 0.216506 0.757772
v 0.391747 0.125000 0.678525
v 0.375000 0.000000 0.649519
v 0.391747 -0.125000 0.678525
v 0.437500 -0.216506 0.757772
v 0.500000 -0.250000 0.866025
v 0.562500 -0.216506 0.974279
v 0.608253 -0.125000 1.053525
v 0.760952 0.000000 0.991692
v 0.740562 0.125000 0.965120
v 0.684856 0.216506 0.892523
v 0.608761 0.250000 0.793353
v 0.532666 0.216506 0.694184
v 0.476961 0.125000 0.621587
v 0.456571 0.000000 0.595015
v 0.476961 -0.125000 0.621587
v 0.532666 -0.216506 0.694184
v 0.608761 -0.250000 0.793353
v 0.684856 -0.216506 0.892523
v 0.740562 -0.125000 0.965120
v 0.883883 0.000000 0.883884
v 0.860199 0.125000 0.860200
v 0.795495 0.216506 0.795496
v 0.707106 0.250000 0.707107
v 0.618718 0.216506 0.618719
v 0.554013 0.125000 0.554014
v 0.530330 0.000000 0.530330
v 0.554013 -0.125000 0.554014
v 0.618718 -0.216506 0.618719
v 0.707106 -0.250000 0.707107
v 0.795495 -0.216506 0.795496
v 0.860199 -0.125000 0.860200
v 0.991692 0.000000 0.760952
v 0.965119 0.125000 0.740562
v 0.892523 0.216506 0.684856
v 0.793353 0.250000 0.608761
v 0.694184 0.216506 0.532666
v 0.621587 0.125000 0.476961
v 0.595015 0.000000 0.456571
v 0.621587 -0.125000 0.476961
v 0.694184 -0.216506 0.532666
v 0.793353 -0.250000 0.608761
v 0.892523 -0.216506 0.684856
v 0.965119 -0.125000 0.740562
v 1.082532 0.000000 0.625000
v 1.053525 0.125000 0.608253
v 0.974279 0.216506 0.562500
v 0.866025 0.250000 0.500000
v 0.757772 0.216506 0.437500
v 0.678525 0.125000 0.391747
v 0.649519 0.000000 0.375000
v 0.678525 -0.125000 0.391747
v 0.757772 -0.216506 0.437500
v 0.866025 -0.250000 0.500000
v 0.974279 -0.216506 0.562500
v 1.053525 -0.125000 0.608253
v 1.154849 0.000000 0.478355
v 1.123905 0.125000 0.465537
v 1.039364 0.216506 0.430519
v 0.923879 0.250000 0.382684
v 0.808394 0.216506 0.334848
v 0.723854 0.125000 0.299830
v 0.692910 0.000000 0.287013
v 0.723854 -0.125000 0.299830
v 0.808394 -0.216506 0.334848
v 0.923879 -0.250000 0.382684
v 1.039364 -0.216506 0.430519
v 1.123905 -0.125000 0.465537
v 1.207407 0.000000 0.323523
v 1.175055 0.125000 0.314855
v 1.086667 0.216506 0.291171
v 0.965926 0.250000 0.258819
v 0.845185 0.216506 0.226466
v 0.756797 0.125000 0.202783
v 0.724444 0.000000 0.194114
v 0.756797 -0.125000 0.202783
v 0.845185 -0.216506 0.226466
v 0.965926 -0.250000 0.258819
v 1.086667 -0.216506 0.291171
v 1.175055 -0.125000 0.314855
v 1.239306 0.000000 0.163158
v 1.206099 0.125000 0.158786
v 1.115376 0.216506 0.146842
v 0.991445 0.250000 0.130526
v 0.867514 0.216506 0.114210
v 0.776791 0.125000 0.102266
v 0.743584 0.000000 0.097895
v 0.776791 -0.125000 0.102266
v 0.867514 -0.216506 0.114210
v 0.991445 -0.250000 0.130526
v 1.115376 -0.216506 0.146842
v 1.206099 -0.125000 0.158786
vn 0.9914 -0.0000 -0.1305
vn 0.8687 0.4954 -0.0000
vn 1.0000 -0.0000 -0.0000
vn 0.7011 0.7071 -0.0923
vn 0.7071 0.7071 -0.0000
vn 0.2566 0.9659 -0.0338
vn 0.2588 0.9659 -0.0000
vn -0.2566 0.9659 0.0338
vn -0.2588 0.9659 -0.0000
vn -0.7011 0.7071 0.0923
vn -0.8633 0.5047 -0.0000
vn -0.7071 0.7071 -0.0000
vn -0.9914 -0.0000 0.1305
vn -1.0000 -0.0000 -0.0000
vn -0.8633 -0.5047 -0.0000
vn -0.8559 -0.5047 0.1127
vn -0.7071 -0.7071 -0.0000
vn -0.2566 -0.9659 0.0338
vn -0.2588 -0.9659 -0.0000
vn 0.2566 -0.9659 -0.0338
vn 0.2588 -0.9659 -0.0000
vn 0.7011 -0.7071 -0.0923
vn 0.8687 -0.4954 -0.0000
vn 0.7071 -0.7071 -0.0000
vn 0.8612 -0.4954 -0.1134
vn 0.9659 -0.0000 -0.2588
vn 0.8612 0.4954 -0.1134
vn 0.8391 0.4954 -0.2248
vn 0.2500 0.9659 -0.0670
vn -0.2500 0.9659 0.0670
vn -0.8339 0.5047 0.2234
vn -0.8559 0.5047 0.1127
vn -0.9659 -0.0000 0.2588
vn -0.8339 -0.5047 0.2234
vn -0.7011 -0.7071 0.0923
vn -0.2500 -0.9659 0.0670
vn 0.2500 -0.9659 -0.0670
vn 0.8391 -0.4954 -0.2248
vn 0.8025 0.4954 -0.3324
vn 0.6830 0.7071 -0.1830
vn 0.2391 0.9659 -0.0990
vn -0.2391 0.9659 0.0990
vn -0.6830 0.7071 0.1830
vn -0.7976 0.5047 0.3304
vn -0.9239 -0.0000 0.3827
vn -0.7976 -0.5047 0.3304
vn -0.6830 -0.7071 0.1830
vn -0.2391 -0.9659 0.0990
vn 0.2391 -0.9659 -0.0990
vn 0.6830 -0.7071 -0.1830
vn 0.8025 -0.4954 -0.3324
vn 0.9239 -0.0000 -0.3827
vn 0.7523 0.4954 -0.4343
vn 0.6124 0.7071 -0.3536
vn 0.6533 0.7071 -0.2706
vn 0.2241 0.9659 -0.1294
vn -0.2241 0.9659 0.1294
vn -0.6533 0.7071 0.2706
vn -0.7476 0.5047 0.4316
vn -0.8660 -0.0000 0.5000
vn -0.7476 -0.5047 0.4316
vn -0.6533 -0.7071 0.2706
vn -0.2241 -0.9659 0.1294
vn 0.2241 -0.9659 -0.1294
vn 0.6124 -0.7071 -0.3536
vn 0.6533 -0.7071 -0.2706
vn 0.7523 -0.4954 -0.4343
vn 0.7934 -0.0000 -0.6088
vn 0.8660 -0.0000 -0.5000
vn 0.5610 0.7071 -0.4305
vn 0.2053 0.9659 -0.1576
vn -0.2053 0.9659 0.1576
vn -0.6124 0.7071 0.3536
vn -0.6849 0.5047 0.5255
vn -0.7934 -0.0000 0.6088
vn -0.6849 -0.5047 0.5255
vn -0.6124 -0.7071 0.3536
vn -0.2053 -0.9659 0.1576
vn 0.2053 -0.9659 -0.1576
vn 0.5610 -0.7071 -0.4305
vn 0.7071 -0.0000 -0.7071
vn 0.6892 0.4954 -0.5288
vn 0.6142 0.4954 -0.6142
vn 0.1830 0.9659 -0.1830
vn -0.1830 0.9659 0.1830
vn -0.5000 0.7071 0.5000
vn -0.5610 0.7071 0.4305
vn -0.6104 0.5047 0.6104
vn -0.6104 -0.5047 0.6104
vn -0.5610 -0.7071 0.4305
vn -0.1830 -0.9659 0.1830
vn 0.1830 -0.9659 -0.1830
vn 0.6142 -0.4954 -0.6142
vn 0.6892 -0.4954 -0.5288
vn 0.6088 -0.0000 -0.7934
vn 0.4305 0.7071 -0.5610
vn 0.5000 0.7071 -0.5000
vn 0.1576 0.9659 -0.2053
vn -0.1576 0.9659 0.2053
vn -0.5255 0.5047 0.6849
vn -0.7071 -0.0000 0.7071
vn -0.6088 -0.0000 0.7934
vn -0.5255 -0.5047 0.6849
vn -0.5000 -0.7071 0.5000
vn -0.1576 -0.9659 0.2053
vn 0.1576 -0.9659 -0.2053
vn 0.4305 -0.7071 -0.5610
vn 0.5000 -0.7071 -0.5000
vn 0.5288 -0.4954 -0.6892
vn 0.5000 -0.0000 -0.8660
vn 0.5288 0.4954 -0.6892
vn 0.3536 0.7071 -0.6124
vn 0.1294 0.9659 -0.2241
vn -0.1294 0.9659 0.2241
vn -0.4305 0.7071 0.5610
vn -0.4316 0.5047 0.7476
vn -0.5000 -0.0000 0.8660
vn -0.4316 -0.5047 0.7476
vn -0.4305 -0.7071 0.5610
vn -0.1294 -0.9659 0.2241
vn 0.1294 -0.9659 -0.2241
vn 0.3536 -0.7071 -0.6124
vn 0.4343 -0.4954 -0.7523
vn 0.3324 0.4954 -0.8025
vn 0.4343 0.4954 -0.7523
vn 0.0990 0.9659 -0.2391
vn -0.0990 0.9659 0.2391
vn -0.2706 0.7071 0.6533
vn -0.3536 0.7071 0.6124
vn -0.3304 0.5047 0.7976
vn -0.3827 -0.0000 0.9239
vn -0.3304 -0.5047 0.7976
vn -0.3536 -0.7071 0.6124
vn -0.0990 -0.9659 0.2391
vn 0.0990 -0.9659 -0.2391
vn 0.2706 -0.7071 -0.6533
vn 0.3324 -0.4954 -0.8025
vn 0.2588 -0.0000 -0.9659
vn 0.3827 -0.0000 -0.9239
vn 0.2248 0.4954 -0.8391
vn 0.2706 0.7071 -0.6533
vn 0.0670 0.9659 -0.2500
vn -0.0670 0.9659 0.2500
vn -0.2234 0.5047 0.8339
vn -0.2588 -0.0000 0.9659
vn -0.2234 -0.5047 0.8339
vn -0.2706 -0.7071 0.6533
vn -0.0670 -0.9659 0.2500
vn 0.0670 -0.9659 -0.2500
vn 0.1830 -0.7071 -0.6830
vn 0.2248 -0.4954 -0.8391
vn 0.1305 -0.0000 -0.9914
vn 0.1134 0.4954 -0.8612
vn 0.1830 0.7071 -0.6830
vn 0.0338 0.9659 -0.2566
vn -0.0338 0.9659 0.2566
vn -0.0923 0.7071 0.7011
vn -0.1830 0.7071 0.6830
vn -0.1127 0.5047 0.8559
vn -0.1127 -0.5047 0.8559
vn -0.1830 -0.7071 0.6830
vn -0.0338 -0.9659 0.2566
vn 0.0338 -0.9659 -0.2566
vn 0.0923 -0.7071 -0.7011
vn 0.1134 -0.4954 -0.8612
vn -0.0000 -0.0000 -1.0000
vn -0.0000 0.4954 -0.8687
vn 0.0923 0.7071 -0.7011
vn -0.0000 0.9659 -0.2588
vn -0.0000 0.9659 0.2588
vn -0.0000 0.5047 0.8633
vn -0.1305 -0.0000 0.9914
vn -0.0000 -0.0000 1.0000
vn -0.0000 -0.5047 0.8633
vn -0.0923 -0.7071 0.7011
vn -0.0000 -0.9659 0.2588
vn -0.0000 -0.9659 -0.2588
vn -0.0000 -0.7071 -0.7071
vn -0.1305 -0.0000 -0.9914
vn -0.1134 0.4954 -0.8612
vn -0.0000 0.7071 -0.7071
vn -0.0338 0.9659 -0.2566
vn 0.0338 0.9659 0.2566
vn 0.0923 0.7071 0.7011
vn -0.0000 0.7071 0.7071
vn 0.1127 0.5047 0.8559
vn 0.1127 -0.5047 0.8559
vn -0.0000 -0.7071 0.7071
vn 0.0338 -0.9659 0.2566
vn -0.0338 -0.9659 -0.2566
vn -0.1134 -0.4954 -0.8612
vn -0.0000 -0.4954 -0.8687
vn -0.2588 -0.0000 -0.9659
vn -0.1830 0.7071 -0.6830
vn -0.0923 0.7071 -0.7011
vn -0.0670 0.9659 -0.2500
vn 0.0670 0.9659 0.2500
vn 0.1830 0.7071 0.6830
vn 0.2234 0.5047 0.8339
vn 0.1305 -0.0000 0.9914
vn 0.2588 -0.0000 0.9659
vn 0.2234 -0.5047 0.8339
vn 0.0923 -0.7071 0.7011
vn 0.0670 -0.9659 0.2500
vn -0.0670 -0.9659 -0.2500
vn -0.1830 -0.7071 -0.6830
vn -0.0923 -0.7071 -0.7011
vn -0.2248 -0.4954 -0.8391
vn -0.3827 -0.0000 -0.9239
vn -0.2248 0.4954 -0.8391
vn -0.3324 0.4954 -0.8025
vn -0.0990 0.9659 -0.2391
vn 0.0990 0.9659 0.2391
vn 0.2706 0.7071 0.6533
vn 0.3304 0.5047 0.7976
vn 0.3827 -0.0000 0.9239
vn 0.3304 -0.5047 0.7976
vn 0.1830 -0.7071 0.6830
vn 0.0990 -0.9659 0.2391
vn -0.0990 -0.9659 -0.2391
vn -0.3324 -0.4954 -0.8025
vn -0.5000 -0.0000 -0.8660
vn -0.3536 0.7071 -0.6124
vn -0.2706 0.7071 -0.6533
vn -0.1294 0.9659 -0.2241
vn 0.1294 0.9659 0.2241
vn 0.3536 0.7071 0.6124
vn 0.4316 0.5047 0.7476
vn 0.5000 -0.0000 0.8660
vn 0.4316 -0.5047 0.7476
vn 0.2706 -0.7071 0.6533
vn 0.1294 -0.9659 0.2241
vn -0.1294 -0.9659 -0.2241
vn -0.3536 -0.7071 -0.6124
vn -0.2706 -0.7071 -0.6533
vn -0.4343 -0.4954 -0.7523
vn -0.6088 -0.0000 -0.7934
vn -0.4343 0.4954 -0.7523
vn -0.5288 0.4954 -0.6892
vn -0.1576 0.9659 -0.2053
vn 0.1576 0.9659 0.2053
vn 0.4305 0.7071 0.5610
vn 0.6088 -0.0000 0.7934
vn 0.4305 -0.7071 0.5610
vn 0.3536 -0.7071 0.6124
vn 0.1576 -0.9659 0.2053
vn -0.1576 -0.9659 -0.2053
vn -0.5288 -0.4954 -0.6892
vn -0.7071 -0.0000 -0.7071
vn -0.6142 0.4954 -0.6142
vn -0.4305 0.7071 -0.5610
vn -0.1830 0.9659 -0.1830
vn 0.1830 0.9659 0.1830
vn 0.5000 0.7071 0.5000
vn 0.5255 0.5047 0.6849
vn 0.6104 0.5047 0.6104
vn 0.7071 -0.0000 0.7071
vn 0.5255 -0.5047 0.6849
vn 0.5000 -0.7071 0.5000
vn 0.1830 -0.9659 0.1830
vn -0.1830 -0.9659 -0.1830
vn -0.5000 -0.7071 -0.5000
vn -0.4305 -0.7071 -0.5610
vn -0.6142 -0.4954 -0.6142
vn -0.7934 -0.0000 -0.6088
vn -0.6892 0.4954 -0.5288
vn -0.5000 0.7071 -0.5000
vn -0.2053 0.9659 -0.1576
vn 0.2053 0.9659 0.1576
vn 0.5610 0.7071 0.4305
vn 0.6849 0.5047 0.5255
vn 0.7934 -0.0000 0.6088
vn 0.6104 -0.5047 0.6104
vn 0.5610 -0.7071 0.4305
vn 0.2053 -0.9659 0.1576
vn -0.2053 -0.9659 -0.1576
vn -0.6892 -0.4954 -0.5288
vn -0.7523 0.4954 -0.4343
vn -0.5610 0.7071 -0.4305
vn -0.2241 0.9659 -0.1294
vn 0.2241 0.9659 0.1294
vn 0.6124 0.7071 0.3536
vn 0.7476 0.5047 0.4316
vn 0.8660 -0.0000 0.5000
vn 0.6849 -0.5047 0.5255
vn 0.7476 -0.5047 0.4316
vn 0.2241 -0.9659 0.1294
vn -0.2241 -0.9659 -0.1294
vn -0.6124 -0.7071 -0.3536
vn -0.5610 -0.7071 -0.4305
vn -0.7523 -0.4954 -0.4343
vn -0.9239 -0.0000 -0.3827
vn -0.8660 -0.0000 -0.5000
vn -0.8025 0.4954 -0.3324
vn -0.6124 0.7071 -0.3536
vn -0.2391 0.9659 -0.0990
vn 0.2391 0.9659 0.0990
vn 0.6533 0.7071 0.2706
vn 0.7976 0.5047 0.3304
vn 0.7976 -0.5047 0.3304
vn 0.6124 -0.7071 0.3536
vn 0.2391 -0.9659 0.0990
vn -0.2391 -0.9659 -0.0990
vn -0.8025 -0.4954 -0.3324
vn -0.8391 0.4954 -0.2248
vn -0.6533 0.7071 -0.2706
vn -0.2500 0.9659 -0.0670
vn 0.2500 0.9659 0.0670
vn 0.6830 0.7071 0.1830
vn 0.8339 0.5047 0.2234
vn 0.9239 -0.0000 0.3827
vn 0.9659 -0.0000 0.2588
vn 0.8339 -0.5047 0.2234
vn 0.6533 -0.7071 0.2706
vn 0.2500 -0.9659 0.0670
vn -0.2500 -0.9659 -0.0670
vn -0.6830 -0.7071 -0.1830
vn -0.6533 -0.7071 -0.2706
vn -0.8391 -0.4954 -0.2248
vn -0.9914 -0.0000 -0.1305
vn -0.9659 -0.0000 -0.2588
vn -0.8612 0.4954 -0.1134
vn -0.6830 0.7071 -0.1830
vn -0.2566 0.9659 -0.0338
vn 0.2566 0.9659 0.0338
vn 0.7011 0.7071 0.0923
vn 0.8559 0.5047 0.1127
vn 0.9914 -0.0000 0.1305
vn 0.7011 -0.7071 0.0923
vn 0.6830 -0.7071 0.1830
vn 0.2566 -0.9659 0.0338
vn -0.2566 -0.9659 -0.0338
vn -0.8612 -0.4954 -0.1134
vn -0.8687 0.4954 -0.0000
vn -0.7011 0.7071 -0.0923
vn 0.8633 0.5047 -0.0000
vn 0.8559 -0.5047 0.1127
vn -0.7011 -0.7071 -0.0923
vn -0.8687 -0.4954 -0.0000
vn -0.8612 0.4954 0.1134
vn 0.8559 0.5047 -0.1127
vn 0.8559 -0.5047 -0.1127
vn 0.8633 -0.5047 -0.0000
vn -0.8612 -0.4954 0.1134
vn -0.8391 0.4954 0.2248
vn 0.8339 0.5047 -0.2234
vn 0.8339 -0.5047 -0.2234
vn -0.8025 0.4954 0.3324
vn 0.7976 0.5047 -0.3304
vn -0.8025 -0.4954 0.3324
vn -0.8391 -0.4954 0.2248
vn -0.7523 0.4954 0.4343
vn 0.7976 -0.5047 -0.3304
vn 0.7476 -0.5047 -0.4316
vn -0.7523 -0.4954 0.4343
vn -0.6892 0.4954 0.5288
vn 0.7476 0.5047 -0.4316
vn 0.6849 0.5047 -0.5255
vn -0.6892 -0.4954 0.5288
vn 0.6104 0.5047 -0.6104
vn 0.6849 -0.5047 -0.5255
vn 0.6104 -0.5047 -0.6104
vn -0.6142 -0.4954 0.6142
vn -0.5288 0.4954 0.6892
vn -0.6142 0.4954 0.6142
vn 0.5255 0.5047 -0.6849
vn 0.5255 -0.5047 -0.6849
vn -0.5288 -0.4954 0.6892
vn -0.4343 0.4954 0.7523
vn 0.4316 0.5047 -0.7476
vn 0.4316 -0.5047 -0.7476
vn -0.4343 -0.4954 0.7523
vn -0.3324 0.4954 0.8025
vn 0.3304 0.5047 -0.7976
vn 0.3304 -0.5047 -0.7976
vn -0.3324 -0.4954 0.8025
vn -0.2248 0.4954 0.8391
vn 0.2234 0.5047 -0.8339
vn 0.2234 -0.5047 -0.8339
vn -0.2248 -0.4954 0.8391
vn 0.1127 0.5047 -0.8559
vn 0.1127 -0.5047 -0.8559
vn -0.1134 -0.4954 0.8612
vn -0.1134 0.4954 0.8612
vn -0.0000 0.4954 0.8687
vn -0.0000 -0.5047 -0.8633
vn -0.0000 -0.4954 0.8687
vn 0.1134 0.4954 0.8612
vn -0.0000 0.5047 -0.8633
vn -0.1127 0.5047 -0.8559
vn 0.1134 -0.4954 0.8612
vn 0.2248 0.4954 0.8391
vn -0.1127 -0.5047 -0.8559
vn -0.2234 -0.5047 -0.8339
vn 0.2248 -0.4954 0.8391
vn 0.3324 0.4954 0.8025
vn -0.2234 0.5047 -0.8339
vn -0.3304 0.5047 -0.7976
vn -0.3304 -0.5047 -0.7976
vn 0.3324 -0.4954 0.8025
vn 0.4343 0.4954 0.7523
vn -0.4316 0.5047 -0.7476
vn -0.4316 -0.5047 -0.7476
vn 0.5288 0.4954 0.6892
vn -0.5255 0.5047 -0.6849
vn -0.5255 -0.5047 -0.6849
vn 0.5288 -0.4954 0.6892
vn 0.4343 -0.4954 0.7523
vn 0.6142 0.4954 0.6142
vn -0.6104 0.5047 -0.6104
vn -0.6104 -0.5047 -0.6104
vn 0.6142 -0.4954 0.6142
vn 0.6892 0.4954 0.5288
vn -0.6849 0.5047 -0.5255
vn 0.6892 -0.4954 0.5288
vn 0.7523 0.4954 0.4343
vn -0.7476 0.5047 -0.4316
vn -0.6849 -0.5047 -0.5255
vn 0.7523 -0.4954 0.4343
vn 0.8025 0.4954 0.3324
vn -0.7976 0.5047 -0.3304
vn -0.7476 -0.5047 -0.4316
vn -0.7976 -0.5047 -0.3304
vn 0.8025 -0.4954 0.3324
vn 0.8391 0.4954 0.2248
vn -0.8339 0.5047 -0.2234
vn 0.8391 -0.4954 0.2248
vn 0.8612 0.4954 0.1134
vn -0.8339 -0.5047 -0.2234
vn -0.8559 -0.5047 -0.1127
vn 0.8612 -0.4954 0.1134
vn -0.8559 0.5047 -0.1127
vt 0.520833 0.500000
vt 0.500000 0.583333
vt 0.500000 0.500000
vt 0.520833 0.666667
vt 0.500000 0.666667
vt 0.500000 0.750000
vt 0.520833 0.750000
vt 0.500000 0.833333
vt 0.520833 0.833333
vt 0.500000 0.916667
vt 0.520833 1.000000
vt 0.500000 1.000000
vt 0.520833 0.000000
vt 0.500000 0.083333
vt 0.500000 0.000000
vt 0.520833 0.083333
vt 0.500000 0.166667
vt 0.520833 0.166667
vt 0.500000 0.250000
vt 0.520833 0.250000
vt 0.500000 0.333333
vt 0.520833 0.333333
vt 0.500000 0.416667
vt 0.520833 0.416667
vt 0.541667 0.500000
vt 0.520833 0.583333
vt 0.541667 0.583333
vt 0.541667 0.666667
vt 0.541667 0.750000
vt 0.541667 0.916667
vt 0.520833 0.916667
vt 0.541667 0.000000
vt 0.541667 0.083333
vt 0.541667 0.250000
vt 0.541667 0.333333
vt 0.541667 0.416667
vt 0.562500 0.583333
vt 0.562500 0.666667
vt 0.562500 0.833333
vt 0.541667 0.833333
vt 0.562500 0.916667
vt 0.562500 1.000000
vt 0.541667 1.000000
vt 0.562500 0.000000
vt 0.562500 0.083333
vt 0.541667 0.166667
vt 0.562500 0.250000
vt 0.562500 0.333333
vt 0.562500 0.416667
vt 0.562500 0.500000
vt 0.583333 0.583333
vt 0.583333 0.666667
vt 0.583333 0.750000
vt 0.562500 0.750000
vt 0.583333 0.916667
vt 0.583333 0.000000
vt 0.583333 0.083333
vt 0.562500 0.166667
vt 0.583333 0.250000
vt 0.583333 0.333333
vt 0.583333 0.416667
vt 0.604167 0.500000
vt 0.583333 0.500000
vt 0.604167 0.666667
vt 0.604167 0.750000
vt 0.583333 0.833333
vt 0.604167 0.916667
vt 0.583333 1.000000
vt 0.604167 0.000000
vt 0.604167 0.083333
vt 0.583333 0.166667
vt 0.604167 0.166667
vt 0.604167 0.250000
vt 0.604167 0.333333
vt 0.625000 0.500000
vt 0.604167 0.583333
vt 0.625000 0.583333
vt 0.625000 0.666667
vt 0.625000 0.750000
vt 0.604167 0.833333
vt 0.625000 0.833333
vt 0.625000 0.916667
vt 0.604167 1.000000
vt 0.625000 0.083333
vt 0.625000 0.166667
vt 0.625000 0.250000
vt 0.625000 0.416667
vt 0.604167 0.416667
vt 0.645833 0.500000
vt 0.645833 0.666667
vt 0.645833 0.750000
vt 0.645833 0.916667
vt 0.625000 1.000000
vt 0.645833 0.000000
vt 0.625000 0.000000
vt 0.645833 0.083333
vt 0.645833 0.250000
vt 0.645833 0.333333
vt 0.625000 0.333333
vt 0.645833 0.416667
vt 0.666667 0.500000
vt 0.645833 0.583333
vt 0.666667 0.666667
vt 0.666667 0.750000
vt 0.645833 0.833333
vt 0.666667 0.916667
vt 0.645833 1.000000
vt 0.666667 0.000000
vt 0.666667 0.083333
vt 0.645833 0.166667
vt 0.666667 0.166667
vt 0.666667 0.250000
vt 0.666667 0.333333
vt 0.666667 0.416667
vt 0.687500 0.583333
vt 0.666667 0.583333
vt 0.687500 0.666667
vt 0.687500 0.750000
vt 0.666667 0.833333
vt 0.687500 0.833333
vt 0.687500 0.916667
vt 0.666667 1.000000
vt 0.687500 0.000000
vt 0.687500 0.083333
vt 0.687500 0.250000
vt 0.687500 0.333333
vt 0.687500 0.416667
vt 0.708333 0.500000
vt 0.687500 0.500000
vt 0.708333 0.583333
vt 0.708333 0.666667
vt 0.708333 0.750000
vt 0.708333 0.916667
vt 0.687500 1.000000
vt 0.708333 0.000000
vt 0.708333 0.083333
vt 0.687500 0.166667
vt 0.708333 0.166667
vt 0.708333 0.250000
vt 0.708333 0.333333
vt 0.708333 0.416667
vt 0.729167 0.500000
vt 0.729167 0.583333
vt 0.729167 0.750000
vt 0.708333 0.833333
vt 0.729167 0.833333
vt 0.729167 0.916667
vt 0.708333 1.000000
vt 0.729167 0.083333
vt 0.729167 0.250000
vt 0.729167 0.333333
vt 0.729167 0.416667
vt 0.750000 0.500000
vt 0.750000 0.583333
vt 0.729167 0.666667
vt 0.750000 0.666667
vt 0.750000 0.833333
vt 0.750000 0.916667
vt 0.729167 1.000000
vt 0.750000 0.000000
vt 0.729167 0.000000
vt 0.750000 0.083333
vt 0.729167 0.166667
vt 0.750000 0.166667
vt 0.750000 0.250000
vt 0.750000 0.333333
vt 0.770833 0.500000
vt 0.770833 0.583333
vt 0.770833 0.666667
vt 0.750000 0.750000
vt 0.770833 0.750000
vt 0.770833 0.833333
vt 0.770833 0.916667
vt 0.750000 1.000000
vt 0.770833 0.083333
vt 0.770833 0.250000
vt 0.770833 0.333333
vt 0.770833 0.416667
vt 0.750000 0.416667
vt 0.791667 0.500000
vt 0.791667 0.666667
vt 0.791667 0.750000
vt 0.791667 0.833333
vt 0.791667 0.916667
vt 0.770833 1.000000
vt 0.791667 0.000000
vt 0.770833 0.000000
vt 0.791667 0.083333
vt 0.770833 0.166667
vt 0.791667 0.166667
vt 0.791667 0.250000
vt 0.791667 0.333333
vt 0.791667 0.416667
vt 0.812500 0.500000
vt 0.791667 0.583333
vt 0.812500 0.583333
vt 0.812500 0.666667
vt 0.812500 0.833333
vt 0.812500 0.916667
vt 0.791667 1.000000
vt 0.812500 0.000000
vt 0.812500 0.083333
vt 0.812500 0.250000
vt 0.812500 0.416667
vt 0.833333 0.500000
vt 0.833333 0.666667
vt 0.812500 0.750000
vt 0.833333 0.750000
vt 0.833333 0.833333
vt 0.833333 0.916667
vt 0.812500 1.000000
vt 0.833333 0.000000
vt 0.833333 0.083333
vt 0.812500 0.166667
vt 0.833333 0.166667
vt 0.833333 0.250000
vt 0.812500 0.333333
vt 0.833333 0.333333
vt 0.833333 0.416667
vt 0.854167 0.500000
vt 0.833333 0.583333
vt 0.854167 0.583333
vt 0.854167 0.666667
vt 0.854167 0.750000
vt 0.854167 0.833333
vt 0.854167 1.000000
vt 0.833333 1.000000
vt 0.854167 0.000000
vt 0.854167 0.166667
vt 0.854167 0.250000
vt 0.854167 0.333333
vt 0.854167 0.416667
vt 0.875000 0.500000
vt 0.875000 0.583333
vt 0.875000 0.750000
vt 0.875000 0.833333
vt 0.854167 0.916667
vt 0.875000 0.916667
vt 0.875000 0.000000
vt 0.854167 0.083333
vt 0.875000 0.166667
vt 0.875000 0.250000
vt 0.875000 0.333333
vt 0.875000 0.416667
vt 0.895833 0.500000
vt 0.895833 0.583333
vt 0.875000 0.666667
vt 0.895833 0.666667
vt 0.895833 0.833333
vt 0.895833 0.916667
vt 0.875000 1.000000
vt 0.895833 0.000000
vt 0.875000 0.083333
vt 0.895833 0.166667
vt 0.895833 0.250000
vt 0.895833 0.416667
vt 0.916667 0.583333
vt 0.916667 0.750000
vt 0.895833 0.750000
vt 0.916667 0.833333
vt 0.916667 0.916667
vt 0.895833 1.000000
vt 0.916667 0.000000
vt 0.895833 0.083333
vt 0.916667 0.083333
vt 0.916667 0.250000
vt 0.895833 0.333333
vt 0.916667 0.333333
vt 0.916667 0.416667
vt 0.937500 0.500000
vt 0.916667 0.500000
vt 0.937500 0.583333
vt 0.916667 0.666667
vt 0.937500 0.666667
vt 0.937500 0.833333
vt 0.937500 0.916667
vt 0.916667 1.000000
vt 0.937500 0.083333
vt 0.916667 0.166667
vt 0.937500 0.166667
vt 0.937500 0.250000
vt 0.937500 0.416667
vt 0.958333 0.583333
vt 0.958333 0.666667
vt 0.937500 0.750000
vt 0.958333 0.833333
vt 0.958333 0.916667
vt 0.937500 1.000000
vt 0.958333 0.000000
vt 0.937500 0.000000
vt 0.958333 0.083333
vt 0.958333 0.166667
vt 0.958333 0.333333
vt 0.937500 0.333333
vt 0.958333 0.416667
vt 0.979167 0.500000
vt 0.958333 0.500000
vt 0.979167 0.583333
vt 0.979167 0.666667
vt 0.958333 0.750000
vt 0.979167 0.750000
vt 0.979167 0.833333
vt 0.979167 0.916667
vt 0.958333 1.000000
vt 0.979167 0.000000
vt 0.979167 0.166667
vt 0.979167 0.250000
vt 0.958333 0.250000
vt 0.979167 0.333333
vt 0.979167 0.416667
vt 1.000000 0.583333
vt 1.000000 0.666667
vt 1.000000 0.750000
vt 1.000000 0.833333
vt 1.000000 0.916667
vt 0.979167 1.000000
vt 1.000000 0.000000
vt 0.979167 0.083333
vt 1.000000 0.166667
vt 1.000000 0.250000
vt 1.000000 0.333333
vt 1.000000 0.416667
vt 0.020833 0.500000
vt 0.000000 0.583333
vt 0.000000 0.500000
vt 0.020833 0.583333
vt 0.000000 0.666667
vt 0.020833 0.666667
vt 0.000000 0.750000
vt 0.020833 0.750000
vt 0.000000 0.833333
vt 0.020833 0.833333
vt 0.000000 0.916667
vt 0.020833 0.916667
vt 0.000000 1.000000
vt 0.000000 0.000000
vt 0.020833 0.083333
vt 0.000000 0.083333
vt 0.000000 0.166667
vt 0.020833 0.250000
vt 0.000000 0.250000
vt 0.020833 0.333333
vt 0.000000 0.333333
vt 0.020833 0.416667
vt 0.000000 0.416667
vt 0.041667 0.583333
vt 0.041667 0.666667
vt 0.041667 0.750000
vt 0.041667 0.833333
vt 0.041667 0.916667
vt 0.020833 1.000000
vt 0.041667 0.000000
vt 0.020833 0.000000
vt 0.041667 0.083333
vt 0.020833 0.166667
vt 0.041667 0.166667
vt 0.041667 0.250000
vt 0.041667 0.333333
vt 0.041667 0.500000
vt 0.062500 0.500000
vt 0.062500 0.583333
vt 0.062500 0.750000
vt 0.062500 0.833333
vt 0.062500 0.916667
vt 0.041667 1.000000
vt 0.062500 0.000000
vt 0.062500 0.166667
vt 0.062500 0.250000
vt 0.062500 0.416667
vt 0.041667 0.416667
vt 0.083333 0.500000
vt 0.083333 0.583333
vt 0.062500 0.666667
vt 0.083333 0.666667
vt 0.083333 0.750000
vt 0.083333 0.833333
vt 0.083333 1.000000
vt 0.062500 1.000000
vt 0.083333 0.000000
vt 0.062500 0.083333
vt 0.083333 0.083333
vt 0.083333 0.166667
vt 0.083333 0.333333
vt 0.062500 0.333333
vt 0.083333 0.416667
vt 0.104167 0.500000
vt 0.104167 0.583333
vt 0.104167 0.666667
vt 0.104167 0.833333
vt 0.083333 0.916667
vt 0.104167 0.916667
vt 0.104167 0.000000
vt 0.104167 0.166667
vt 0.083333 0.250000
vt 0.104167 0.250000
vt 0.104167 0.416667
vt 0.125000 0.500000
vt 0.125000 0.666667
vt 0.104167 0.750000
vt 0.125000 0.750000
vt 0.125000 0.833333
vt 0.125000 0.916667
vt 0.104167 1.000000
vt 0.125000 0.000000
vt 0.104167 0.083333
vt 0.125000 0.083333
vt 0.125000 0.250000
vt 0.104167 0.333333
vt 0.125000 0.333333
vt 0.125000 0.416667
vt 0.145833 0.583333
vt 0.125000 0.583333
vt 0.145833 0.666667
vt 0.145833 0.833333
vt 0.145833 0.916667
vt 0.125000 1.000000
vt 0.145833 0.000000
vt 0.145833 0.083333
vt 0.125000 0.166667
vt 0.145833 0.166667
vt 0.145833 0.250000
vt 0.145833 0.333333
vt 0.145833 0.416667
vt 0.145833 0.500000
vt 0.166667 0.583333
vt 0.166667 0.666667
vt 0.145833 0.750000
vt 0.166667 0.750000
vt 0.166667 0.916667
vt 0.145833 1.000000
vt 0.166667 0.000000
vt 0.166667 0.083333
vt 0.166667 0.166667
vt 0.166667 0.333333
vt 0.166667 0.416667
vt 0.187500 0.500000
vt 0.166667 0.500000
vt 0.187500 0.583333
vt 0.187500 0.666667
vt 0.187500 0.750000
vt 0.166667 0.833333
vt 0.187500 0.833333
vt 0.187500 0.916667
vt 0.166667 1.000000
vt 0.187500 0.000000
vt 0.187500 0.083333
vt 0.187500 0.250000
vt 0.166667 0.250000
vt 0.187500 0.416667
vt 0.208333 0.500000
vt 0.208333 0.583333
vt 0.208333 0.666667
vt 0.208333 0.750000
vt 0.208333 0.916667
vt 0.187500 1.000000
vt 0.208333 0.000000
vt 0.208333 0.083333
vt 0.187500 0.166667
vt 0.208333 0.166667
vt 0.208333 0.250000
vt 0.187500 0.333333
vt 0.208333 0.416667
vt 0.229167 0.500000
vt 0.229167 0.666667
vt 0.229167 0.750000
vt 0.208333 0.833333
vt 0.229167 0.916667
vt 0.208333 1.000000
vt 0.229167 0.000000
vt 0.229167 0.083333
vt 0.229167 0.250000
vt 0.208333 0.333333
vt 0.229167 0.333333
vt 0.229167 0.416667
vt 0.250000 0.500000
vt 0.229167 0.583333
vt 0.250000 0.583333
vt 0.250000 0.750000
vt 0.250000 0.833333
vt 0.229167 0.833333
vt 0.250000 1.000000
vt 0.229167 1.000000
vt 0.250000 0.000000
vt 0.250000 0.083333
vt 0.229167 0.166667
vt 0.250000 0.166667
vt 0.250000 0.250000
vt 0.250000 0.333333
vt 0.250000 0.416667
vt 0.270833 0.583333
vt 0.250000 0.666667
vt 0.270833 0.666667
vt 0.270833 0.750000
vt 0.270833 0.833333
vt 0.250000 0.916667
vt 0.270833 0.916667
vt 0.270833 0.000000
vt 0.270833 0.166667
vt 0.270833 0.250000
vt 0.270833 0.333333
vt 0.270833 0.416667
vt 0.291667 0.500000
vt 0.270833 0.500000
vt 0.291667 0.583333
vt 0.291667 0.666667
vt 0.291667 0.750000
vt 0.291667 0.833333
vt 0.291667 1.000000
vt 0.270833 1.000000
vt 0.291667 0.000000
vt 0.270833 0.083333
vt 0.291667 0.083333
vt 0.291667 0.250000
vt 0.291667 0.333333
vt 0.291667 0.416667
vt 0.312500 0.500000
vt 0.312500 0.583333
vt 0.312500 0.666667
vt 0.312500 0.750000
vt 0.312500 0.833333
vt 0.291667 0.916667
vt 0.312500 0.916667
vt 0.312500 0.000000
vt 0.312500 0.083333
vt 0.291667 0.166667
vt 0.312500 0.166667
vt 0.312500 0.333333
vt 0.312500 0.416667
vt 0.333333 0.500000
vt 0.333333 0.583333
vt 0.333333 0.750000
vt 0.333333 0.833333
vt 0.333333 0.916667
vt 0.312500 1.000000
vt 0.333333 0.000000
vt 0.333333 0.083333
vt 0.333333 0.166667
vt 0.312500 0.250000
vt 0.333333 0.250000
vt 0.333333 0.333333
vt 0.354167 0.583333
vt 0.333333 0.666667
vt 0.354167 0.666667
vt 0.354167 0.750000
vt 0.354167 0.833333
vt 0.354167 0.916667
vt 0.333333 1.000000
vt 0.354167 0.000000
vt 0.354167 0.083333
vt 0.354167 0.166667
vt 0.354167 0.250000
vt 0.354167 0.416667
vt 0.333333 0.416667
vt 0.354167 0.500000
vt 0.375000 0.583333
vt 0.375000 0.750000
vt 0.375000 0.833333
vt 0.375000 0.916667
vt 0.354167 1.000000
vt 0.375000 0.000000
vt 0.375000 0.083333
vt 0.375000 0.166667
vt 0.375000 0.250000
vt 0.354167 0.333333
vt 0.375000 0.416667
vt 0.375000 0.500000
vt 0.395833 0.583333
vt 0.375000 0.666667
vt 0.395833 0.750000
vt 0.395833 0.833333
vt 0.395833 0.916667
vt 0.375000 1.000000
vt 0.395833 0.000000
vt 0.395833 0.166667
vt 0.395833 0.250000
vt 0.375000 0.333333
vt 0.395833 0.333333
vt 0.395833 0.416667
vt 0.416667 0.500000
vt 0.395833 0.500000
vt 0.416667 0.583333
vt 0.395833 0.666667
vt 0.416667 0.666667
vt 0.416667 0.750000
vt 0.416667 0.833333
vt 0.416667 0.916667
vt 0.395833 1.000000
vt 0.416667 0.000000
vt 0.395833 0.083333
vt 0.416667 0.166667
vt 0.416667 0.250000
vt 0.416667 0.416667
vt 0.437500 0.500000
vt 0.437500 0.583333
vt 0.437500 0.750000
vt 0.437500 0.833333
vt 0.437500 0.916667
vt 0.416667 1.000000
vt 0.437500 0.000000
vt 0.416667 0.083333
vt 0.437500 0.083333
vt 0.437500 0.166667
vt 0.437500 0.250000
vt 0.416667 0.333333
vt 0.437500 0.333333
vt 0.437500 0.416667
vt 0.458333 0.500000
vt 0.458333 0.583333
vt 0.437500 0.666667
vt 0.458333 0.666667
vt 0.458333 0.750000
vt 0.458333 0.833333
vt 0.458333 0.916667
vt 0.437500 1.000000
vt 0.458333 0.000000
vt 0.458333 0.166667
vt 0.458333 0.250000
vt 0.458333 0.333333
vt 0.458333 0.416667
vt 0.479167 0.583333
vt 0.479167 0.666667
vt 0.479167 0.750000
vt 0.479167 0.833333
vt 0.479167 1.000000
vt 0.458333 1.000000
vt 0.479167 0.000000
vt 0.458333 0.083333
vt 0.479167 0.083333
vt 0.479167 0.250000
vt 0.479167 0.333333
vt 0.479167 0.416667
vt 0.479167 0.500000
vt 0.479167 0.916667
vt 0.479167 0.166667
vt 1.000000 0.500000
vt 1.000000 1.000000
vt 1.000000 0.083333
s 1
f 13/1/1 2/2/2 1/3/3
f 2/2/2 15/4/4 3/5/5
f 15/4/6 4/6/7 3/5/7
f 16/7/8 5/8/9 4/6/9
f 17/9/10 6/10/11 5/8/12
f 6/10/11 19/11/13 7/12/14
f 19/13/13 8/14/15 7/15/14
f 20/16/16 9/17/17 8/14/15
f 21/18/18 10/19/19 9/17/19
f 22/20/20 11/21/21 10/19/21
f 23/22/22 12/23/23 11/21/24
f 24/24/25 1/3/3 12/23/23
f 25/25/26 14/26/27 13/1/1
f 26/27/28 15/4/4 14/26/27
f 27/28/29 16/7/6 15/4/6
f 28/29/30 17/9/8 16/7/8
f 17/9/10 30/30/31 18/31/32
f 30/30/31 19/11/13 18/31/32
f 31/32/33 20/16/16 19/13/13
f 32/33/34 21/18/35 20/16/16
f 21/18/18 34/34/36 22/20/18
f 22/20/20 35/35/37 23/22/20
f 23/22/22 36/36/38 24/24/25
f 36/36/38 13/1/1 24/24/25
f 25/25/26 38/37/39 26/27/28
f 38/37/39 27/28/40 26/27/28
f 39/38/41 28/29/29 27/28/29
f 28/29/30 41/39/42 29/40/30
f 29/40/43 42/41/44 30/30/31
f 30/30/31 43/42/45 31/43/33
f 43/44/45 32/33/34 31/32/33
f 44/45/46 33/46/47 32/33/34
f 33/46/36 46/47/48 34/34/36
f 34/34/37 47/48/49 35/35/37
f 35/35/50 48/49/51 36/36/38
f 48/49/51 25/25/26 36/36/38
f 37/50/52 50/51/53 38/37/39
f 38/37/39 51/52/54 39/38/55
f 39/38/41 52/53/56 40/54/41
f 52/53/57 41/39/42 40/54/42
f 41/39/58 54/55/59 42/41/44
f 54/55/59 43/42/45 42/41/44
f 55/56/60 44/45/46 43/44/45
f 56/57/61 45/58/62 44/45/46
f 45/58/48 58/59/63 46/47/48
f 58/59/64 47/48/49 46/47/49
f 59/60/65 48/49/51 47/48/66
f 60/61/67 37/50/52 48/49/51
f 61/62/68 50/51/53 49/63/69
f 50/51/53 63/64/70 51/52/54
f 63/64/71 52/53/56 51/52/56
f 64/65/72 53/66/57 52/53/57
f 53/66/73 66/67/74 54/55/59
f 66/67/74 55/68/60 54/55/59
f 67/69/75 56/57/61 55/56/60
f 68/70/76 57/71/77 56/57/61
f 69/72/78 58/59/63 57/71/63
f 70/73/79 59/60/64 58/59/64
f 71/74/80 60/61/67 59/60/65
f 60/61/67 61/62/68 49/63/69
f 73/75/81 62/76/82 61/62/68
f 74/77/83 63/64/70 62/76/82
f 75/78/84 64/65/71 63/64/71
f 76/79/85 65/80/72 64/65/72
f 77/81/86 66/67/74 65/80/87
f 78/82/88 67/83/75 66/67/74
f 67/69/75 80/84/89 68/70/76
f 80/84/89 69/72/90 68/70/76
f 81/85/91 70/73/78 69/72/78
f 82/86/92 71/74/79 70/73/79
f 71/74/80 84/87/93 72/88/94
f 84/87/93 61/62/68 72/88/94
f 85/89/95 74/77/83 73/75/81
f 74/77/83 87/90/96 75/78/97
f 87/90/98 76/79/84 75/78/84
f 88/91/99 77/81/85 76/79/85
f 77/81/86 90/92/100 78/82/88
f 90/92/100 79/93/101 78/82/88
f 91/94/102 80/84/89 79/95/101
f 92/96/103 81/85/104 80/84/89
f 81/85/91 94/97/105 82/86/91
f 82/86/92 95/98/106 83/99/92
f 95/98/107 84/87/93 83/99/108
f 96/100/109 73/75/81 84/87/93
f 97/101/110 86/102/111 85/89/95
f 86/102/111 99/103/112 87/90/96
f 87/90/98 100/104/113 88/91/98
f 100/104/114 89/105/99 88/91/99
f 89/105/115 102/106/116 90/92/100
f 102/106/116 91/107/102 90/92/100
f 103/108/117 92/96/103 91/94/102
f 104/109/118 93/110/119 92/96/103
f 105/111/120 94/97/105 93/110/105
f 106/112/121 95/98/106 94/97/106
f 107/113/122 96/100/109 95/98/107
f 108/114/123 85/89/95 96/100/109
f 97/101/110 110/115/124 98/116/125
f 110/115/124 99/103/112 98/116/125
f 111/117/126 100/104/113 99/103/113
f 112/118/127 101/119/114 100/104/114
f 113/120/128 102/106/116 101/119/129
f 114/121/130 103/122/117 102/106/116
f 115/123/131 104/109/118 103/108/117
f 116/124/132 105/111/133 104/109/118
f 105/111/120 118/125/134 106/112/120
f 106/112/121 119/126/135 107/113/121
f 119/126/136 108/114/123 107/113/122
f 120/127/137 97/101/110 108/114/123
f 121/128/138 110/115/124 109/129/139
f 122/130/140 111/117/141 110/115/124
f 123/131/142 112/118/126 111/117/126
f 124/132/143 113/120/127 112/118/127
f 113/120/128 126/133/144 114/121/130
f 126/133/144 115/134/131 114/121/130
f 127/135/145 116/124/132 115/123/131
f 128/136/146 117/137/147 116/124/132
f 129/138/148 118/125/134 117/137/134
f 130/139/149 119/126/135 118/125/135
f 131/140/150 120/127/137 119/126/136
f 132/141/151 109/129/139 120/127/137
f 133/142/152 122/130/140 121/128/138
f 134/143/153 123/131/154 122/130/140
f 123/131/142 136/144/155 124/132/142
f 136/144/156 125/145/143 124/132/143
f 137/146/157 126/133/144 125/145/158
f 138/147/159 127/148/145 126/133/144
f 127/135/145 140/149/160 128/136/146
f 140/149/160 129/138/161 128/136/146
f 129/138/148 142/150/162 130/139/148
f 142/150/163 131/140/149 130/139/149
f 143/151/164 132/141/151 131/140/150
f 144/152/165 121/128/138 132/141/151
f 145/153/166 134/143/153 133/142/152
f 146/154/167 135/155/168 134/143/153
f 147/156/169 136/144/155 135/155/155
f 136/144/156 149/157/170 137/146/156
f 137/146/157 150/158/171 138/147/159
f 150/158/171 139/159/172 138/147/159
f 151/160/173 140/149/160 139/161/172
f 152/162/174 141/163/175 140/149/160
f 153/164/176 142/150/162 141/163/162
f 154/165/177 143/151/163 142/150/163
f 155/166/178 144/152/165 143/151/164
f 144/152/165 145/153/166 133/142/152
f 157/167/179 146/154/167 145/153/166
f 158/168/180 147/156/181 146/154/167
f 159/169/182 148/170/169 147/156/169
f 160/171/183 149/157/170 148/170/170
f 161/172/184 150/158/171 149/157/185
f 162/173/186 151/174/173 150/158/171
f 151/160/173 164/175/187 152/162/174
f 164/175/187 153/164/188 152/162/174
f 153/164/176 166/176/189 154/165/176
f 154/165/177 167/177/190 155/166/177
f 155/166/178 168/178/191 156/179/192
f 156/179/192 157/167/179 145/153/166
f 169/180/193 158/168/180 157/167/179
f 158/168/180 171/181/194 159/169/195
f 159/169/182 172/182/196 160/171/182
f 172/182/197 161/172/183 160/171/183
f 173/183/198 162/173/186 161/172/184
f 174/184/199 163/185/200 162/173/186
f 175/186/201 164/175/187 163/187/200
f 176/188/202 165/189/203 164/175/187
f 177/190/204 166/176/189 165/189/189
f 178/191/205 167/177/190 166/176/190
f 179/192/206 168/178/191 167/177/207
f 180/193/208 157/167/179 168/178/191
f 181/194/209 170/195/210 169/180/193
f 182/196/211 171/181/194 170/195/210
f 183/197/212 172/182/196 171/181/196
f 172/182/197 185/198/213 173/183/197
f 185/198/214 174/184/199 173/183/198
f 186/199/215 175/200/201 174/184/199
f 187/201/216 176/188/202 175/186/201
f 188/202/217 177/190/218 176/188/202
f 177/190/204 190/203/219 178/191/204
f 190/203/220 179/192/205 178/191/205
f 179/192/206 192/204/221 180/193/208
f 192/204/221 169/180/193 180/193/208
f 193/205/222 182/196/211 181/194/209
f 182/196/211 195/206/223 183/197/224
f 195/206/225 184/207/212 183/197/212
f 196/208/226 185/198/213 184/207/213
f 197/209/227 186/199/215 185/198/214
f 198/210/228 187/211/216 186/199/215
f 199/212/229 188/202/217 187/201/216
f 200/213/230 189/214/231 188/202/217
f 201/215/232 190/203/219 189/214/219
f 202/216/233 191/217/220 190/203/220
f 203/218/234 192/204/221 191/217/235
f 204/219/236 181/194/209 192/204/221
f 205/220/237 194/221/238 193/205/222
f 206/222/239 195/206/223 194/221/238
f 207/223/240 196/208/225 195/206/225
f 208/224/241 197/209/226 196/208/226
f 209/225/242 198/210/228 197/209/227
f 198/210/228 211/226/243 199/227/229
f 211/228/243 200/213/230 199/212/229
f 200/213/230 213/229/244 201/215/245
f 201/215/232 214/230/246 202/216/232
f 202/216/233 215/231/247 203/218/233
f 203/218/234 216/232/248 204/219/236
f 216/232/248 193/205/222 204/219/236
f 217/233/249 206/222/239 205/220/237
f 218/234/250 207/223/251 206/222/239
f 207/223/240 220/235/252 208/224/240
f 220/235/253 209/225/241 208/224/241
f 221/236/254 210/237/255 209/225/242
f 222/238/256 211/226/243 210/237/255
f 223/239/257 212/240/258 211/228/243
f 212/240/258 225/241/259 213/229/244
f 225/241/260 214/230/246 213/229/246
f 226/242/261 215/231/247 214/230/247
f 227/243/262 216/232/248 215/231/263
f 228/244/264 205/220/237 216/232/248
f 229/245/265 218/234/250 217/233/249
f 230/246/266 219/247/267 218/234/250
f 231/248/268 220/235/252 219/247/252
f 220/235/253 233/249/269 221/236/253
f 233/249/270 222/238/256 221/236/254
f 234/250/271 223/251/257 222/238/256
f 235/252/272 224/253/273 223/239/257
f 224/253/273 237/254/274 225/241/259
f 237/254/275 226/242/260 225/241/260
f 238/255/276 227/243/261 226/242/261
f 227/243/262 240/256/277 228/244/264
f 240/256/277 217/233/249 228/244/264
f 229/245/265 242/257/278 230/246/266
f 242/257/278 231/248/279 230/246/266
f 231/248/268 244/258/280 232/259/268
f 244/258/281 233/249/269 232/259/269
f 245/260/282 234/250/271 233/249/270
f 246/261/283 235/262/272 234/250/271
f 247/263/284 236/264/285 235/252/272
f 248/265/286 237/254/274 236/264/285
f 237/254/275 250/266/287 238/255/275
f 250/266/288 239/267/276 238/255/276
f 251/268/289 240/256/277 239/267/290
f 252/269/291 229/245/265 240/256/277
f 253/270/292 242/257/278 241/271/293
f 254/272/294 243/273/295 242/257/278
f 255/274/296 244/258/280 243/273/280
f 244/258/281 257/275/297 245/260/281
f 257/275/298 246/261/283 245/260/282
f 258/276/299 247/277/284 246/261/283
f 247/263/284 260/278/300 248/265/286
f 260/278/300 249/279/301 248/265/286
f 261/280/302 250/266/287 249/279/287
f 262/281/303 251/268/288 250/266/288
f 251/268/289 264/282/304 252/269/291
f 264/282/304 241/271/293 252/269/291
f 253/270/292 266/283/305 254/272/294
f 266/283/305 255/274/306 254/272/294
f 267/284/307 256/285/296 255/274/296
f 256/285/297 269/286/308 257/275/297
f 269/286/309 258/276/299 257/275/298
f 270/287/310 259/288/311 258/276/299
f 271/289/312 260/278/300 259/290/311
f 272/291/313 261/280/314 260/278/300
f 273/292/315 262/281/302 261/280/302
f 262/281/303 275/293/316 263/294/303
f 275/293/317 264/282/304 263/294/318
f 276/295/319 253/270/292 264/282/304
f 277/296/320 266/283/305 265/297/321
f 278/298/322 267/284/323 266/283/305
f 279/299/324 268/300/307 267/284/307
f 280/301/325 269/286/308 268/300/308
f 281/302/326 270/287/310 269/286/309
f 282/303/327 271/304/312 270/287/310
f 283/305/328 272/291/313 271/289/312
f 272/291/313 285/306/329 273/292/330
f 273/292/315 286/307/331 274/308/315
f 274/308/316 287/309/332 275/293/316
f 275/293/317 288/310/333 276/295/319
f 276/295/319 277/296/320 265/297/321
f 277/296/320 290/311/334 278/298/322
f 290/311/334 279/299/335 278/298/322
f 291/312/9 280/301/324 279/299/324
f 292/313/7 281/302/325 280/301/325
f 293/314/5 282/303/327 281/302/326
f 294/315/336 283/316/328 282/303/327
f 295/317/3 284/318/337 283/305/328
f 284/318/337 297/319/24 285/306/329
f 297/319/21 286/307/331 285/306/331
f 298/320/19 287/309/332 286/307/332
f 299/321/17 288/310/333 287/309/338
f 300/322/339 277/296/320 288/310/333
f 301/323/13 290/324/334 289/325/14
f 302/326/340 291/327/12 290/324/334
f 303/328/8 292/329/9 291/327/9
f 304/330/6 293/331/7 292/329/7
f 305/332/4 294/333/336 293/331/5
f 306/334/341 295/335/3 294/333/336
f 295/336/3 308/337/342 296/338/343
f 308/337/342 297/339/24 296/338/343
f 297/339/21 310/340/20 298/341/21
f 298/341/19 311/342/18 299/343/19
f 299/343/17 312/344/344 300/345/339
f 300/345/339 301/323/13 289/325/14
f 301/323/13 314/346/345 302/326/340
f 302/326/340 315/347/43 303/328/10
f 303/328/8 316/348/30 304/330/8
f 304/330/6 317/349/29 305/332/6
f 305/332/4 318/350/346 306/334/341
f 318/350/346 307/351/1 306/334/341
f 319/352/26 308/337/342 307/353/1
f 320/354/347 309/355/22 308/337/342
f 321/356/37 310/340/20 309/355/20
f 322/357/36 311/342/18 310/340/18
f 323/358/47 312/344/344 311/342/35
f 312/344/344 313/359/33 301/323/13
f 325/360/45 314/346/345 313/359/33
f 326/361/348 315/347/43 314/346/345
f 315/347/30 328/362/42 316/348/30
f 328/362/41 317/349/29 316/348/29
f 329/363/55 318/350/346 317/349/40
f 330/364/349 319/365/26 318/350/346
f 331/366/52 320/354/347 319/352/26
f 320/354/347 333/367/66 321/356/50
f 333/367/49 322/357/37 321/356/37
f 334/368/48 323/358/36 322/357/36
f 323/358/47 336/369/350 324/370/351
f 324/370/351 325/360/45 313/359/33
f 337/371/60 326/361/348 325/360/45
f 338/372/352 327/373/58 326/361/348
f 339/374/57 328/362/42 327/373/42
f 340/375/56 329/363/41 328/362/41
f 341/376/54 330/364/349 329/363/55
f 330/364/349 343/377/69 331/378/52
f 343/379/69 332/380/353 331/366/52
f 344/381/354 333/367/66 332/380/353
f 345/382/64 334/368/49 333/367/49
f 334/368/48 347/383/63 335/384/48
f 335/384/62 348/385/355 336/369/350
f 348/385/355 325/360/45 336/369/350
f 349/386/75 338/372/352 337/371/60
f 350/387/356 339/374/73 338/372/352
f 351/388/72 340/375/57 339/374/57
f 340/375/56 353/389/71 341/376/56
f 353/389/70 342/390/357 341/376/54
f 354/391/358 343/377/69 342/390/357
f 355/392/68 344/381/354 343/379/69
f 344/381/354 357/393/80 345/382/65
f 357/393/79 346/394/64 345/382/64
f 358/395/78 347/383/63 346/394/63
f 347/383/77 360/396/359 348/385/355
f 360/396/359 337/371/60 348/385/355
f 361/397/101 350/387/356 349/386/75
f 350/387/356 363/398/86 351/388/87
f 363/398/85 352/399/72 351/388/72
f 364/400/84 353/389/71 352/399/71
f 365/401/97 354/391/358 353/389/70
f 366/402/360 355/403/68 354/391/358
f 367/404/81 356/405/361 355/392/68
f 368/406/362 357/393/80 356/405/361
f 357/393/79 370/407/92 358/395/79
f 370/407/91 359/408/78 358/395/78
f 371/409/104 360/396/359 359/408/90
f 372/410/363 349/386/75 360/396/359
f 361/397/101 374/411/364 362/412/365
f 362/412/365 375/413/115 363/398/86
f 375/413/99 364/400/85 363/398/85
f 364/400/84 377/414/98 365/401/84
f 377/414/96 366/402/360 365/401/97
f 378/415/366 367/416/81 366/402/360
f 379/417/95 368/406/362 367/404/81
f 380/418/367 369/419/108 368/406/362
f 381/420/106 370/407/92 369/419/92
f 382/421/105 371/409/91 370/407/91
f 383/422/119 372/410/363 371/409/104
f 384/423/368 361/397/101 372/410/363
f 373/424/102 386/425/369 374/411/364
f 386/425/369 375/413/115 374/411/364
f 387/426/114 376/427/99 375/413/99
f 388/428/113 377/414/98 376/427/98
f 377/414/96 390/429/370 378/415/366
f 390/429/370 379/430/95 378/415/366
f 391/431/110 380/418/367 379/417/95
f 392/432/371 381/420/107 380/418/367
f 393/433/121 382/421/106 381/420/106
f 382/421/105 395/434/120 383/422/105
f 383/422/119 396/435/372 384/423/368
f 396/435/372 373/424/102 384/423/368
f 397/436/131 386/425/369 385/437/117
f 398/438/373 387/426/129 386/425/369
f 399/439/127 388/428/114 387/426/114
f 400/440/126 389/441/113 388/428/113
f 401/442/141 390/429/370 389/441/112
f 402/443/374 391/444/110 390/429/370
f 403/445/139 392/432/371 391/431/110
f 404/446/375 393/433/122 392/432/371
f 393/433/121 406/447/135 394/448/121
f 406/447/134 395/434/120 394/448/120
f 395/434/133 408/449/376 396/435/372
f 408/449/376 385/437/117 396/435/372
f 409/450/145 398/438/373 397/436/131
f 410/451/377 399/439/128 398/438/373
f 411/452/143 400/440/127 399/439/127
f 412/453/142 401/442/126 400/440/126
f 401/442/141 414/454/378 402/443/374
f 414/454/378 403/455/139 402/443/374
f 415/456/138 404/446/375 403/445/139
f 416/457/379 405/458/136 404/446/375
f 417/459/149 406/447/135 405/458/135
f 418/460/148 407/461/134 406/447/134
f 407/461/147 420/462/380 408/449/376
f 420/462/380 397/436/131 408/449/376
f 421/463/172 410/451/377 409/450/145
f 410/451/377 423/464/157 411/452/158
f 423/464/156 412/453/143 411/452/143
f 424/465/155 413/466/142 412/453/142
f 413/466/154 426/467/381 414/454/378
f 426/467/381 415/468/138 414/454/378
f 427/469/152 416/457/379 415/456/138
f 428/470/382 417/459/150 416/457/379
f 417/459/149 430/471/163 418/460/149
f 430/471/162 419/472/148 418/460/148
f 431/473/175 420/462/380 419/472/161
f 432/474/383 409/450/145 420/462/380
f 433/475/173 422/476/384 421/463/172
f 434/477/385 423/464/157 422/476/384
f 423/464/156 436/478/170 424/465/156
f 424/465/155 437/479/169 425/480/155
f 437/479/181 426/467/381 425/480/168
f 426/467/381 439/481/166 427/482/152
f 439/483/166 428/470/382 427/469/152
f 440/484/386 429/485/164 428/470/382
f 441/486/177 430/471/163 429/485/163
f 442/487/176 431/473/162 430/471/162
f 443/488/188 432/474/383 431/473/175
f 444/489/387 421/463/172 432/474/383
f 433/475/173 446/490/388 434/477/385
f 446/490/388 435/491/185 434/477/385
f 447/492/183 436/478/170 435/491/170
f 448/493/182 437/479/169 436/478/169
f 449/494/195 438/495/389 437/479/181
f 450/496/390 439/481/166 438/495/389
f 451/497/179 440/484/386 439/483/166
f 440/484/386 453/498/207 441/486/178
f 441/486/177 454/499/190 442/487/177
f 454/499/189 443/488/176 442/487/176
f 455/500/203 444/489/387 443/488/188
f 456/501/391 433/475/173 444/489/387
f 457/502/201 446/490/388 445/503/200
f 458/504/392 447/492/184 446/490/388
f 459/505/197 448/493/183 447/492/183
f 460/506/196 449/494/182 448/493/182
f 461/507/194 450/496/390 449/494/195
f 450/496/390 463/508/193 451/509/179
f 463/510/193 452/511/393 451/497/179
f 464/512/394 453/498/207 452/511/393
f 453/498/190 466/513/205 454/499/190
f 454/499/189 467/514/204 455/500/189
f 467/514/218 456/501/391 455/500/203
f 468/515/395 445/503/200 456/501/391
f 469/516/216 458/504/392 457/502/201
f 470/517/396 459/505/198 458/504/392
f 471/518/213 460/506/197 459/505/197
f 472/519/212 461/507/196 460/506/196
f 473/520/224 462/521/397 461/507/194
f 474/522/398 463/508/193 462/521/397
f 475/523/209 464/512/394 463/510/193
f 476/524/399 465/525/206 464/512/394
f 477/526/220 466/513/205 465/525/205
f 466/513/204 479/527/219 467/514/204
f 467/514/218 480/528/400 468/515/395
f 480/528/400 457/502/201 468/515/395
f 481/529/229 470/517/396 469/516/216
f 482/530/401 471/518/214 470/517/396
f 471/518/213 484/531/226 472/519/213
f 472/519/212 485/532/225 473/520/212
f 485/532/223 474/522/398 473/520/224
f 486/533/402 475/534/209 474/522/398
f 487/535/222 476/524/399 475/523/209
f 488/536/403 477/526/235 476/524/399
f 489/537/233 478/538/220 477/526/220
f 490/539/232 479/527/219 478/538/219
f 491/540/245 480/528/400 479/527/231
f 480/528/400 481/529/229 469/516/216
f 481/529/229 494/541/404 482/530/401
f 494/541/404 483/542/227 482/530/401
f 495/543/241 484/531/226 483/542/226
f 496/544/240 485/532/225 484/531/225
f 497/545/251 486/533/402 485/532/223
f 498/546/405 487/547/222 486/533/402
f 499/548/237 488/536/403 487/535/222
f 500/549/406 489/537/234 488/536/403
f 501/550/247 490/539/233 489/537/233
f 502/551/246 491/540/232 490/539/232
f 491/540/245 504/552/407 492/553/408
f 504/552/407 481/529/229 492/553/408
f 493/554/243 506/555/409 494/541/404
f 506/555/409 495/543/242 494/541/404
f 495/543/241 508/556/253 496/544/241
f 496/544/240 509/557/252 497/545/240
f 497/545/251 510/558/410 498/546/405
f 510/558/410 499/559/237 498/546/405
f 511/560/249 500/549/406 499/548/237
f 512/561/411 501/550/263 500/549/406
f 513/562/261 502/551/247 501/550/247
f 514/563/260 503/564/246 502/551/246
f 503/564/244 516/565/412 504/552/407
f 516/565/412 493/554/243 504/552/407
f 505/566/257 518/567/413 506/555/409
f 518/567/413 507/568/254 506/555/409
f 507/568/253 520/569/269 508/556/253
f 520/569/268 509/557/252 508/556/252
f 521/570/279 510/558/410 509/557/267
f 522/571/414 511/572/249 510/558/410
f 523/573/265 512/561/411 511/560/249
f 512/561/411 525/574/290 513/562/262
f 513/562/261 526/575/276 514/563/261
f 526/575/275 515/576/260 514/563/260
f 527/577/274 516/565/412 515/576/259
f 528/578/415 505/566/257 516/565/412
f 529/579/284 518/567/413 517/580/272
f 530/581/416 519/582/270 518/567/413
f 531/583/281 520/569/269 519/582/269
f 532/584/280 521/570/268 520/569/268
f 533/585/295 522/571/414 521/570/279
f 534/586/417 523/587/265 522/571/414
f 535/588/293 524/589/418 523/573/265
f 524/589/418 537/590/289 525/574/290
f 537/590/288 526/575/276 525/574/276
f 538/591/287 527/577/275 526/575/275
f 527/577/274 540/592/419 528/578/415
f 540/592/419 517/580/272 528/578/415
f 541/593/311 530/581/416 529/579/284
f 542/594/420 531/583/282 530/581/416
f 531/583/281 544/595/297 532/584/281
f 544/595/296 533/585/280 532/584/280
f 545/596/306 534/586/417 533/585/295
f 546/597/421 535/598/293 534/586/417
f 547/599/292 536/600/422 535/588/293
f 548/601/423 537/590/289 536/600/422
f 549/602/303 538/591/288 537/590/288
f 550/603/302 539/604/287 538/591/287
f 551/605/314 540/592/419 539/604/301
f 552/606/424 529/579/284 540/592/419
f 553/607/312 542/594/420 541/593/311
f 554/608/425 543/609/298 542/594/420
f 555/610/308 544/595/297 543/609/297
f 556/611/307 545/596/296 544/595/296
f 557/612/323 546/597/421 545/596/306
f 558/613/426 547/614/292 546/597/421
f 559/615/321 548/601/423 547/599/292
f 548/601/423 561/616/317 549/602/318
f 561/616/316 550/603/303 549/602/303
f 562/617/315 551/605/302 550/603/302
f 563/618/330 552/606/424 551/605/314
f 564/619/427 541/593/311 552/606/424
f 553/607/312 566/620/428 554/608/425
f 554/608/425 567/621/326 555/610/309
f 555/610/308 568/622/325 556/611/308
f 568/622/324 557/612/307 556/611/307
f 569/623/335 558/613/426 557/612/323
f 558/613/426 571/624/320 559/625/321
f 571/626/320 560/627/429 559/615/321
f 572/628/430 561/616/317 560/627/429
f 561/616/316 574/629/332 562/617/316
f 574/629/331 563/618/315 562/617/315
f 575/630/329 564/619/427 563/618/330
f 576/631/431 553/607/312 564/619/427
f 1/3/3 566/620/428 565/632/328
f 2/2/2 567/621/326 566/620/428
f 3/5/7 568/622/325 567/621/325
f 4/6/9 569/623/324 568/622/324
f 5/8/12 570/633/432 569/623/335
f 6/10/11 571/624/320 570/633/432
f 571/626/320 8/14/15 572/628/430
f 8/14/15 573/634/338 572/628/430
f 9/17/19 574/629/332 573/634/332
f 10/19/21 575/630/331 574/629/331
f 575/630/329 12/23/23 576/631/431
f 576/631/431 1/3/3 565/632/328
f 13/1/1 14/26/27 2/2/2
f 2/2/2 14/26/27 15/4/4
f 15/4/6 16/7/6 4/6/7
f 16/7/8 17/9/8 5/8/9
f 17/9/10 18/31/32 6/10/11
f 6/10/11 18/31/32 19/11/13
f 19/13/13 20/16/16 8/14/15
f 20/16/16 21/18/35 9/17/17
f 21/18/18 22/20/18 10/19/19
f 22/20/20 23/22/20 11/21/21
f 23/22/22 24/24/25 12/23/23
f 24/24/25 13/1/1 1/3/3
f 25/25/26 26/27/28 14/26/27
f 26/27/28 27/28/40 15/4/4
f 27/28/29 28/29/29 16/7/6
f 28/29/30 29/40/30 17/9/8
f 17/9/10 29/40/43 30/30/31
f 30/30/31 31/43/33 19/11/13
f 31/32/33 32/33/34 20/16/16
f 32/33/34 33/46/47 21/18/35
f 21/18/18 33/46/36 34/34/36
f 22/20/20 34/34/37 35/35/37
f 23/22/22 35/35/50 36/36/38
f 36/36/38 25/25/26 13/1/1
f 25/25/26 37/50/52 38/37/39
f 38/37/39 39/38/55 27/28/40
f 39/38/41 40/54/41 28/29/29
f 28/29/30 40/54/42 41/39/42
f 29/40/43 41/39/58 42/41/44
f 30/30/31 42/41/44 43/42/45
f 43/44/45 44/45/46 32/33/34
f 44/45/46 45/58/62 33/46/47
f 33/46/36 45/58/48 46/47/48
f 34/34/37 46/47/49 47/48/49
f 35/35/50 47/48/66 48/49/51
f 48/49/51 37/50/52 25/25/26
f 37/50/52 49/63/69 50/51/53
f 38/37/39 50/51/53 51/52/54
f 39/38/41 51/52/56 52/53/56
f 52/53/57 53/66/57 41/39/42
f 41/39/58 53/66/73 54/55/59
f 54/55/59 55/68/60 43/42/45
f 55/56/60 56/57/61 44/45/46
f 56/57/61 57/71/77 45/58/62
f 45/58/48 57/71/63 58/59/63
f 58/59/64 59/60/64 47/48/49
f 59/60/65 60/61/67 48/49/51
f 60/61/67 49/63/69 37/50/52
f 61/62/68 62/76/82 50/51/53
f 50/51/53 62/76/82 63/64/70
f 63/64/71 64/65/71 52/53/56
f 64/65/72 65/80/72 53/66/57
f 53/66/73 65/80/87 66/67/74
f 66/67/74 67/83/75 55/68/60
f 67/69/75 68/70/76 56/57/61
f 68/70/76 69/72/90 57/71/77
f 69/72/78 70/73/78 58/59/63
f 70/73/79 71/74/79 59/60/64
f 71/74/80 72/88/94 60/61/67
f 60/61/67 72/88/94 61/62/68
f 73/75/81 74/77/83 62/76/82
f 74/77/83 75/78/97 63/64/70
f 75/78/84 76/79/84 64/65/71
f 76/79/85 77/81/85 65/80/72
f 77/81/86 78/82/88 66/67/74
f 78/82/88 79/93/101 67/83/75
f 67/69/75 79/95/101 80/84/89
f 80/84/89 81/85/104 69/72/90
f 81/85/91 82/86/91 70/73/78
f 82/86/92 83/99/92 71/74/79
f 71/74/80 83/99/108 84/87/93
f 84/87/93 73/75/81 61/62/68
f 85/89/95 86/102/111 74/77/83
f 74/77/83 86/102/111 87/90/96
f 87/90/98 88/91/98 76/79/84
f 88/91/99 89/105/99 77/81/85
f 77/81/86 89/105/115 90/92/100
f 90/92/100 91/107/102 79/93/101
f 91/94/102 92/96/103 80/84/89
f 92/96/103 93/110/119 81/85/104
f 81/85/91 93/110/105 94/97/105
f 82/86/92 94/97/106 95/98/106
f 95/98/107 96/100/109 84/87/93
f 96/100/109 85/89/95 73/75/81
f 97/101/110 98/116/125 86/102/111
f 86/102/111 98/116/125 99/103/112
f 87/90/98 99/103/113 100/104/113
f 100/104/114 101/119/114 89/105/99
f 89/105/115 101/119/129 102/106/116
f 102/106/116 103/122/117 91/107/102
f 103/108/117 104/109/118 92/96/103
f 104/109/118 105/111/133 93/110/119
f 105/111/120 106/112/120 94/97/105
f 106/112/121 107/113/121 95/98/106
f 107/113/122 108/114/123 96/100/109
f 108/114/123 97/101/110 85/89/95
f 97/101/110 109/129/139 110/115/124
f 110/115/124 111/117/141 99/103/112
f 111/117/126 112/118/126 100/104/113
f 112/118/127 113/120/127 101/119/114
f 113/120/128 114/121/130 102/106/116
f 114/121/130 115/134/131 103/122/117
f 115/123/131 116/124/132 104/109/118
f 116/124/132 117/137/147 105/111/133
f 105/111/120 117/137/134 118/125/134
f 106/112/121 118/125/135 119/126/135
f 119/126/136 120/127/137 108/114/123
f 120/127/137 109/129/139 97/101/110
f 121/128/138 122/130/140 110/115/124
f 122/130/140 123/131/154 111/117/141
f 123/131/142 124/132/142 112/118/126
f 124/132/143 125/145/143 113/120/127
f 113/120/128 125/145/158 126/133/144
f 126/133/144 127/148/145 115/134/131
f 127/135/145 128/136/146 116/124/132
f 128/136/146 129/138/161 117/137/147
f 129/138/148 130/139/148 118/125/134
f 130/139/149 131/140/149 119/126/135
f 131/140/150 132/141/151 120/127/137
f 132/141/151 121/128/138 109/129/139
f 133/142/152 134/143/153 122/130/140
f 134/143/153 135/155/168 123/131/154
f 123/131/142 135/155/155 136/144/155
f 136/144/156 137/146/156 125/145/143
f 137/146/157 138/147/159 126/133/144
f 138/147/159 139/159/172 127/148/145
f 127/135/145 139/161/172 140/149/160
f 140/149/160 141/163/175 129/138/161
f 129/138/148 141/163/162 142/150/162
f 142/150/163 143/151/163 131/140/149
f 143/151/164 144/152/165 132/141/151
f 144/152/165 133/142/152 121/128/138
f 145/153/166 146/154/167 134/143/153
f 146/154/167 147/156/181 135/155/168
f 147/156/169 148/170/169 136/144/155
f 136/144/156 148/170/170 149/157/170
f 137/146/157 149/157/185 150/158/171
f 150/158/171 151/174/173 139/159/172
f 151/160/173 152/162/174 140/149/160
f 152/162/174 153/164/188 141/163/175
f 153/164/176 154/165/176 142/150/162
f 154/165/177 155/166/177 143/151/163
f 155/166/178 156/179/192 144/152/165
f 144/152/165 156/179/192 145/153/166
f 157/167/179 158/168/180 146/154/167
f 158/168/180 159/169/195 147/156/181
f 159/169/182 160/171/182 148/170/169
f 160/171/183 161/172/183 149/157/170
f 161/172/184 162/173/186 150/158/171
f 162/173/186 163/185/200 151/174/173
f 151/160/173 163/187/200 164/175/187
f 164/175/187 165/189/203 153/164/188
f 153/164/176 165/189/189 166/176/189
f 154/165/177 166/176/190 167/177/190
f 155/166/178 167/177/207 168/178/191
f 156/179/192 168/178/191 157/167/179
f 169/180/193 170/195/210 158/168/180
f 158/168/180 170/195/210 171/181/194
f 159/169/182 171/181/196 172/182/196
f 172/182/197 173/183/197 161/172/183
f 173/183/198 174/184/199 162/173/186
f 174/184/199 175/200/201 163/185/200
f 175/186/201 176/188/202 164/175/187
f 176/188/202 177/190/218 165/189/203
f 177/190/204 178/191/204 166/176/189
f 178/191/205 179/192/205 167/177/190
f 179/192/206 180/193/208 168/178/191
f 180/193/208 169/180/193 157/167/179
f 181/194/209 182/196/211 170/195/210
f 182/196/211 183/197/224 171/181/194
f 183/197/212 184/207/212 172/182/196
f 172/182/197 184/207/213 185/198/213
f 185/198/214 186/199/215 174/184/199
f 186/199/215 187/211/216 175/200/201
f 187/201/216 188/202/217 176/188/202
f 188/202/217 189/214/231 177/190/218
f 177/190/204 189/214/219 190/203/219
f 190/203/220 191/217/220 179/192/205
f 179/192/206 191/217/235 192/204/221
f 192/204/221 181/194/209 169/180/193
f 193/205/222 194/221/238 182/196/211
f 182/196/211 194/221/238 195/206/223
f 195/206/225 196/208/225 184/207/212
f 196/208/226 197/209/226 185/198/213
f 197/209/227 198/210/228 186/199/215
f 198/210/228 199/227/229 187/211/216
f 199/212/229 200/213/230 188/202/217
f 200/213/230 201/215/245 189/214/231
f 201/215/232 202/216/232 190/203/219
f 202/216/233 203/218/233 191/217/220
f 203/218/234 204/219/236 192/204/221
f 204/219/236 193/205/222 181/194/209
f 205/220/237 206/222/239 194/221/238
f 206/222/239 207/223/251 195/206/223
f 207/223/240 208/224/240 196/208/225
f 208/224/241 209/225/241 197/209/226
f 209/225/242 210/237/255 198/210/228
f 198/210/228 210/237/255 211/226/243
f 211/228/243 212/240/258 200/213/230
f 200/213/230 212/240/258 213/229/244
f 201/215/232 213/229/246 214/230/246
f 202/216/233 214/230/247 215/231/247
f 203/218/234 215/231/263 216/232/248
f 216/232/248 205/220/237 193/205/222
f 217/233/249 218/234/250 206/222/239
f 218/234/250 219/247/267 207/223/251
f 207/223/240 219/247/252 220/235/252
f 220/235/253 221/236/253 209/225/241
f 221/236/254 222/238/256 210/237/255
f 222/238/256 223/251/257 211/226/243
f 223/239/257 224/253/273 212/240/258
f 212/240/258 224/253/273 225/241/259
f 225/241/260 226/242/260 214/230/246
f 226/242/261 227/243/261 215/231/247
f 227/243/262 228/244/264 216/232/248
f 228/244/264 217/233/249 205/220/237
f 229/245/265 230/246/266 218/234/250
f 230/246/266 231/248/279 219/247/267
f 231/248/268 232/259/268 220/235/252
f 220/235/253 232/259/269 233/249/269
f 233/249/270 234/250/271 222/238/256
f 234/250/271 235/262/272 223/251/257
f 235/252/272 236/264/285 224/253/273
f 224/253/273 236/264/285 237/254/274
f 237/254/275 238/255/275 226/242/260
f 238/255/276 239/267/276 227/243/261
f 227/243/262 239/267/290 240/256/277
f 240/256/277 229/245/265 217/233/249
f 229/245/265 241/271/293 242/257/278
f 242/257/278 243/273/295 231/248/279
f 231/248/268 243/273/280 244/258/280
f 244/258/281 245/260/281 233/249/269
f 245/260/282 246/261/283 234/250/271
f 246/261/283 247/277/284 235/262/272
f 247/263/284 248/265/286 236/264/285
f 248/265/286 249/279/301 237/254/274
f 237/254/275 249/279/287 250/266/287
f 250/266/288 251/268/288 239/267/276
f 251/268/289 252/269/291 240/256/277
f 252/269/291 241/271/293 229/245/265
f 253/270/292 254/272/294 242/257/278
f 254/272/294 255/274/306 243/273/295
f 255/274/296 256/285/296 244/258/280
f 244/258/281 256/285/297 257/275/297
f 257/275/298 258/276/299 246/261/283
f 258/276/299 259/288/311 247/277/284
f 247/263/284 259/290/311 260/278/300
f 260/278/300 261/280/314 249/279/301
f 261/280/302 262/281/302 250/266/287
f 262/281/303 263/294/303 251/268/288
f 251/268/289 263/294/318 264/282/304
f 264/282/304 253/270/292 241/271/293
f 253/270/292 265/297/321 266/283/305
f 266/283/305 267/284/323 255/274/306
f 267/284/307 268/300/307 256/285/296
f 256/285/297 268/300/308 269/286/308
f 269/286/309 270/287/310 258/276/299
f 270/287/310 271/304/312 259/288/311
f 271/289/312 272/291/313 260/278/300
f 272/291/313 273/292/330 261/280/314
f 273/292/315 274/308/315 262/281/302
f 262/281/303 274/308/316 275/293/316
f 275/293/317 276/295/319 264/282/304
f 276/295/319 265/297/321 253/270/292
f 277/296/320 278/298/322 266/283/305
f 278/298/322 279/299/335 267/284/323
f 279/299/324 280/301/324 268/300/307
f 280/301/325 281/302/325 269/286/308
f 281/302/326 282/303/327 270/287/310
f 282/303/327 283/316/328 271/304/312
f 283/305/328 284/318/337 272/291/313
f 272/291/313 284/318/337 285/306/329
f 273/292/315 285/306/331 286/307/331
f 274/308/316 286/307/332 287/309/332
f 275/293/317 287/309/338 288/310/333
f 276/295/319 288/310/333 277/296/320
f 277/296/320 289/635/14 290/311/334
f 290/311/334 291/312/12 279/299/335
f 291/312/9 292/313/9 280/301/324
f 292/313/7 293/314/7 281/302/325
f 293/314/5 294/315/336 282/303/327
f 294/315/336 295/636/3 283/316/328
f 295/317/3 296/637/343 284/318/337
f 284/318/337 296/637/343 297/319/24
f 297/319/21 298/320/21 286/307/331
f 298/320/19 299/321/19 287/309/332
f 299/321/17 300/322/339 288/310/333
f 300/322/339 289/635/14 277/296/320
f 301/323/13 302/326/340 290/324/334
f 302/326/340 303/328/10 291/327/12
f 303/328/8 304/330/8 292/329/9
f 304/330/6 305/332/6 293/331/7
f 305/332/4 306/334/341 294/333/336
f 306/334/341 307/351/1 295/335/3
f 295/336/3 307/353/1 308/337/342
f 308/337/342 309/355/22 297/339/24
f 297/339/21 309/355/20 310/340/20
f 298/341/19 310/340/18 311/342/18
f 299/343/17 311/342/35 312/344/344
f 300/345/339 312/344/344 301/323/13
f 301/323/13 313/359/33 314/346/345
f 302/326/340 314/346/345 315/347/43
f 303/328/8 315/347/30 316/348/30
f 304/330/6 316/348/29 317/349/29
f 305/332/4 317/349/40 318/350/346
f 318/350/346 319/365/26 307/351/1
f 319/352/26 320/354/347 308/337/342
f 320/354/347 321/356/50 309/355/22
f 321/356/37 322/357/37 310/340/20
f 322/357/36 323/358/36 311/342/18
f 323/358/47 324/370/351 312/344/344
f 312/344/344 324/370/351 313/359/33
f 325/360/45 326/361/348 314/346/345
f 326/361/348 327/373/58 315/347/43
f 315/347/30 327/373/42 328/362/42
f 328/362/41 329/363/41 317/349/29
f 329/363/55 330/364/349 318/350/346
f 330/364/349 331/378/52 319/365/26
f 331/366/52 332/380/353 320/354/347
f 320/354/347 332/380/353 333/367/66
f 333/367/49 334/368/49 322/357/37
f 334/368/48 335/384/48 323/358/36
f 323/358/47 335/384/62 336/369/350
f 324/370/351 336/369/350 325/360/45
f 337/371/60 338/372/352 326/361/348
f 338/372/352 339/374/73 327/373/58
f 339/374/57 340/375/57 328/362/42
f 340/375/56 341/376/56 329/363/41
f 341/376/54 342/390/357 330/364/349
f 330/364/349 342/390/357 343/377/69
f 343/379/69 344/381/354 332/380/353
f 344/381/354 345/382/65 333/367/66
f 345/382/64 346/394/64 334/368/49
f 334/368/48 346/394/63 347/383/63
f 335/384/62 347/383/77 348/385/355
f 348/385/355 337/371/60 325/360/45
f 349/386/75 350/387/356 338/372/352
f 350/387/356 351/388/87 339/374/73
f 351/388/72 352/399/72 340/375/57
f 340/375/56 352/399/71 353/389/71
f 353/389/70 354/391/358 342/390/357
f 354/391/358 355/403/68 343/377/69
f 355/392/68 356/405/361 344/381/354
f 344/381/354 356/405/361 357/393/80
f 357/393/79 358/395/79 346/394/64
f 358/395/78 359/408/78 347/383/63
f 347/383/77 359/408/90 360/396/359
f 360/396/359 349/386/75 337/371/60
f 361/397/101 362/412/365 350/387/356
f 350/387/356 362/412/365 363/398/86
f 363/398/85 364/400/85 352/399/72
f 364/400/84 365/401/84 353/389/71
f 365/401/97 366/402/360 354/391/358
f 366/402/360 367/416/81 355/403/68
f 367/404/81 368/406/362 356/405/361
f 368/406/362 369/419/108 357/393/80
f 357/393/79 369/419/92 370/407/92
f 370/407/91 371/409/91 359/408/78
f 371/409/104 372/410/363 360/396/359
f 372/410/363 361/397/101 349/386/75
f 361/397/101 373/424/102 374/411/364
f 362/412/365 374/411/364 375/413/115
f 375/413/99 376/427/99 364/400/85
f 364/400/84 376/427/98 377/414/98
f 377/414/96 378/415/366 366/402/360
f 378/415/366 379/430/95 367/416/81
f 379/417/95 380/418/367 368/406/362
f 380/418/367 381/420/107 369/419/108
f 381/420/106 382/421/106 370/407/92
f 382/421/105 383/422/105 371/409/91
f 383/422/119 384/423/368 372/410/363
f 384/423/368 373/424/102 361/397/101
f 373/424/102 385/437/117 386/425/369
f 386/425/369 387/426/129 375/413/115
f 387/426/114 388/428/114 376/427/99
f 388/428/113 389/441/113 377/414/98
f 377/414/96 389/441/112 390/429/370
f 390/429/370 391/444/110 379/430/95
f 391/431/110 392/432/371 380/418/367
f 392/432/371 393/433/122 381/420/107
f 393/433/121 394/448/121 382/421/106
f 382/421/105 394/448/120 395/434/120
f 383/422/119 395/434/133 396/435/372
f 396/435/372 385/437/117 373/424/102
f 397/436/131 398/438/373 386/425/369
f 398/438/373 399/439/128 387/426/129
f 399/439/127 400/440/127 388/428/114
f 400/440/126 401/442/126 389/441/113
f 401/442/141 402/443/374 390/429/370
f 402/443/374 403/455/139 391/444/110
f 403/445/139 404/446/375 392/432/371
f 404/446/375 405/458/136 393/433/122
f 393/433/121 405/458/135 406/447/135
f 406/447/134 407/461/134 395/434/120
f 395/434/133 407/461/147 408/449/376
f 408/449/376 397/436/131 385/437/117
f 409/450/145 410/451/377 398/438/373
f 410/451/377 411/452/158 399/439/128
f 411/452/143 412/453/143 400/440/127
f 412/453/142 413/466/142 401/442/126
f 401/442/141 413/466/154 414/454/378
f 414/454/378 415/468/138 403/455/139
f 415/456/138 416/457/379 404/446/375
f 416/457/379 417/459/150 405/458/136
f 417/459/149 418/460/149 406/447/135
f 418/460/148 419/472/148 407/461/134
f 407/461/147 419/472/161 420/462/380
f 420/462/380 409/450/145 397/436/131
f 421/463/172 422/476/384 410/451/377
f 410/451/377 422/476/384 423/464/157
f 423/464/156 424/465/156 412/453/143
f 424/465/155 425/480/155 413/466/142
f 413/466/154 425/480/168 426/467/381
f 426/467/381 427/482/152 415/468/138
f 427/469/152 428/470/382 416/457/379
f 428/470/382 429/485/164 417/459/150
f 417/459/149 429/485/163 430/471/163
f 430/471/162 431/473/162 419/472/148
f 431/473/175 432/474/383 420/462/380
f 432/474/383 421/463/172 409/450/145
f 433/475/173 434/477/385 422/476/384
f 434/477/385 435/491/185 423/464/157
f 423/464/156 435/491/170 436/478/170
f 424/465/155 436/478/169 437/479/169
f 437/479/181 438/495/389 426/467/381
f 426/467/381 438/495/389 439/481/166
f 439/483/166 440/484/386 428/470/382
f 440/484/386 441/486/178 429/485/164
f 441/486/177 442/487/177 430/471/163
f 442/487/176 443/488/176 431/473/162
f 443/488/188 444/489/387 432/474/383
f 444/489/387 433/475/173 421/463/172
f 433/475/173 445/503/200 446/490/388
f 446/490/388 447/492/184 435/491/185
f 447/492/183 448/493/183 436/478/170
f 448/493/182 449/494/182 437/479/169
f 449/494/195 450/496/390 438/495/389
f 450/496/390 451/509/179 439/481/166
f 451/497/179 452/511/393 440/484/386
f 440/484/386 452/511/393 453/498/207
f 441/486/177 453/498/190 454/499/190
f 454/499/189 455/500/189 443/488/176
f 455/500/203 456/501/391 444/489/387
f 456/501/391 445/503/200 433/475/173
f 457/502/201 458/504/392 446/490/388
f 458/504/392 459/505/198 447/492/184
f 459/505/197 460/506/197 448/493/183
f 460/506/196 461/507/196 449/494/182
f 461/507/194 462/521/397 450/496/390
f 450/496/390 462/521/397 463/508/193
f 463/510/193 464/512/394 452/511/393
f 464/512/394 465/525/206 453/498/207
f 453/498/190 465/525/205 466/513/205
f 454/499/189 466/513/204 467/514/204
f 467/514/218 468/515/395 456/501/391
f 468/515/395 457/502/201 445/503/200
f 469/516/216 470/517/396 458/504/392
f 470/517/396 471/518/214 459/505/198
f 471/518/213 472/519/213 460/506/197
f 472/519/212 473/520/212 461/507/196
f 473/520/224 474/522/398 462/521/397
f 474/522/398 475/534/209 463/508/193
f 475/523/209 476/524/399 464/512/394
f 476/524/399 477/526/235 465/525/206
f 477/526/220 478/538/220 466/513/205
f 466/513/204 478/538/219 479/527/219
f 467/514/218 479/527/231 480/528/400
f 480/528/400 469/516/216 457/502/201
f 481/529/229 482/530/401 470/517/396
f 482/530/401 483/542/227 471/518/214
f 471/518/213 483/542/226 484/531/226
f 472/519/212 484/531/225 485/532/225
f 485/532/223 486/533/402 474/522/398
f 486/533/402 487/547/222 475/534/209
f 487/535/222 488/536/403 476/524/399
f 488/536/403 489/537/234 477/526/235
f 489/537/233 490/539/233 478/538/220
f 490/539/232 491/540/232 479/527/219
f 491/540/245 492/553/408 480/528/400
f 480/528/400 492/553/408 481/529/229
f 481/529/229 493/554/243 494/541/404
f 494/541/404 495/543/242 483/542/227
f 495/543/241 496/544/241 484/531/226
f 496/544/240 497/545/240 485/532/225
f 497/545/251 498/546/405 486/533/402
f 498/546/405 499/559/237 487/547/222
f 499/548/237 500/549/406 488/536/403
f 500/549/406 501/550/263 489/537/234
f 501/550/247 502/551/247 490/539/233
f 502/551/246 503/564/246 491/540/232
f 491/540/245 503/564/244 504/552/407
f 504/552/407 493/554/243 481/529/229
f 493/554/243 505/566/257 506/555/409
f 506/555/409 507/568/254 495/543/242
f 495/543/241 507/568/253 508/556/253
f 496/544/240 508/556/252 509/557/252
f 497/545/251 509/557/267 510/558/410
f 510/558/410 511/572/249 499/559/237
f 511/560/249 512/561/411 500/549/406
f 512/561/411 513/562/262 501/550/263
f 513/562/261 514/563/261 502/551/247
f 514/563/260 515/576/260 503/564/246
f 503/564/244 515/576/259 516/565/412
f 516/565/412 505/566/257 493/554/243
f 505/566/257 517/580/272 518/567/413
f 518/567/413 519/582/270 507/568/254
f 507/568/253 519/582/269 520/569/269
f 520/569/268 521/570/268 509/557/252
f 521/570/279 522/571/414 510/558/410
f 522/571/414 523/587/265 511/572/249
f 523/573/265 524/589/418 512/561/411
f 512/561/411 524/589/418 525/574/290
f 513/562/261 525/574/276 526/575/276
f 526/575/275 527/577/275 515/576/260
f 527/577/274 528/578/415 516/565/412
f 528/578/415 517/580/272 505/566/257
f 529/579/284 530/581/416 518/567/413
f 530/581/416 531/583/282 519/582/270
f 531/583/281 532/584/281 520/569/269
f 532/584/280 533/585/280 521/570/268
f 533/585/295 534/586/417 522/571/414
f 534/586/417 535/598/293 523/587/265
f 535/588/293 536/600/422 524/589/418
f 524/589/418 536/600/422 537/590/289
f 537/590/288 538/591/288 526/575/276
f 538/591/287 539/604/287 527/577/275
f 527/577/274 539/604/301 540/592/419
f 540/592/419 529/579/284 517/580/272
f 541/593/311 542/594/420 530/581/416
f 542/594/420 543/609/298 531/583/282
f 531/583/281 543/609/297 544/595/297
f 544/595/296 545/596/296 533/585/280
f 545/596/306 546/597/421 534/586/417
f 546/597/421 547/614/292 535/598/293
f 547/599/292 548/601/423 536/600/422
f 548/601/423 549/602/318 537/590/289
f 549/602/303 550/603/303 538/591/288
f 550/603/302 551/605/302 539/604/287
f 551/605/314 552/606/424 540/592/419
f 552/606/424 541/593/311 529/579/284
f 553/607/312 554/608/425 542/594/420
f 554/608/425 555/610/309 543/609/298
f 555/610/308 556/611/308 544/595/297
f 556/611/307 557/612/307 545/596/296
f 557/612/323 558/613/426 546/597/421
f 558/613/426 559/625/321 547/614/292
f 559/615/321 560/627/429 548/601/423
f 548/601/423 560/627/429 561/616/317
f 561/616/316 562/617/316 550/603/303
f 562/617/315 563/618/315 551/605/302
f 563/618/330 564/619/427 552/606/424
f 564/619/427 553/607/312 541/593/311
f 553/607/312 565/632/328 566/620/428
f 554/608/425 566/620/428 567/621/326
f 555/610/308 567/621/325 568/622/325
f 568/622/324 569/623/324 557/612/307
f 569/623/335 570/633/432 558/613/426
f 558/613/426 570/633/432 571/624/320
f 571/626/320 572/628/430 560/627/429
f 572/628/430 573/634/338 561/616/317
f 561/616/316 573/634/332 574/629/332
f 574/629/331 575/630/331 563/618/315
f 575/630/329 576/631/431 564/619/427
f 576/631/431 565/632/328 553/607/312
f 1/3/3 2/2/2 566/620/428
f 2/2/2 3/5/5 567/621/326
f 3/5/7 4/6/7 568/622/325
f 4/6/9 5/8/9 569/623/324
f 5/8/12 6/10/11 570/633/432
f 6/10/11 7/12/14 571/624/320
f 571/626/320 7/15/14 8/14/15
f 8/14/15 9/17/17 573/634/338
f 9/17/19 10/19/19 574/629/332
f 10/19/21 11/21/21 575/630/331
f 575/630/329 11/21/24 12/23/23
f 576/631/431 12/23/23 1/3/3
